<?xml version="1.0" encoding="UTF-8"?>
<svg width="187px" height="108px" viewBox="0 0 187 108" version="1.1"
    xmlns="http://www.w3.org/2000/svg"
    xmlns:xlink="http://www.w3.org/1999/xlink">
    <title></title>
    <defs>
        <path d="M29.6414114,0.123114254 C13.2708561,0.123114254 0,13.3938049 0,29.7645257 L0,29.7645257 C0,46.135081 13.2708561,59.4059371 29.6414114,59.4059371 L29.6414114,59.4059371 C46.0119667,59.4059371 59.2828228,46.135081 59.2828228,29.7645257 L59.2828228,29.7645257 C59.2828228,13.3938049 46.0119667,0.123114254 29.6414114,0.123114254 Z" id="path-1"></path>
        <radialGradient cx="50.0623464%" cy="15.5566482%" fx="50.0623464%" fy="15.5566482%" r="70.5113721%" id="radialGradient-3">
            <stop stop-color="#279BCB" offset="0%"></stop>
            <stop stop-color="#00426B" offset="100%"></stop>
        </radialGradient>
    </defs>
    <g id="Page-4" stroke="none" stroke-width="1" fill="none" fill-rule="evenodd">
        <g id="Option-6" transform="translate(-1006.000000, -2226.000000)">
            <g id="Group-6" transform="translate(907.000000, 2180.000000)">
                <g id="Group-21" transform="translate(99.000000, 46.000000)">
                    <polygon id="Path-3" fill="#ACB9C6" points="57 53.8994632 99 12 99 96"></polygon>
                    <circle id="Oval" stroke="#ACB9C6" stroke-width="0.799999952" fill="#FFFFFF" cx="133" cy="54" r="53.6"></circle>
                    <path d="M124.927517,9 L123.979591,9.04769074 L123.502703,9.12857963 L123.346247,9.15537407 L122.865682,9.36686481 L122.910479,9.72227037 L123.256988,9.9737 L124.569976,10.2881556 L125.408249,10.7445037 L127.056547,12.671513 L129.068068,14.3390037 L129.89882,14.7646815 L129.89882,14.9379185 L129.846501,14.9151685 L128.196365,14.1436907 L127.484961,13.6905444 L125.46575,11.4655944 L124.825052,10.7588278 L124.74883,10.7140019 L124.571815,10.6091833 L124.569976,10.6083407 L124.491748,10.6196315 L124.379923,10.6358093 L124.30554,10.6587278 L124.111809,10.7187204 L123.866094,10.7273148 L123.763629,10.5217222 L123.648126,10.4586963 L123.100532,10.3157926 L122.910479,10.2881556 L122.71491,10.2232759 L122.647714,10.0529037 L122.670113,9.56217778 L122.536056,9.24957593 L122.195231,9.20963704 L121.262181,9.31546667 L119.473977,9.15537407 L119.472138,9.15537407 L119.066123,9.33821667 L118.164498,10.183337 L117.669223,10.4349352 L117.820163,10.7045648 L118.054679,11.0149759 L118.144106,11.1332759 L118.295045,11.3933 L118.384305,11.69815 L118.429269,11.9676111 L118.524045,12.1934259 L118.77561,12.3676741 L118.803525,12.2020204 L118.987895,12.2771796 L119.185303,12.4067704 L119.237455,12.4391259 L119.75914,12.6256759 L120.636193,13.3248593 L121.737064,13.9448389 L122.284658,14.1762148 L122.839773,14.2847407 L122.590214,13.9991019 L122.139234,13.6047685 L121.889675,13.326713 L121.888003,13.3248593 L122.379601,13.5382037 L123.234589,14.2933352 L123.674035,14.5245426 L123.82698,14.6541333 L123.994468,14.7456389 L124.167638,14.6922185 L124.313062,14.3932667 L124.167638,14.1618907 L123.921923,13.9724759 L123.763629,13.8048 L123.709639,13.2353759 L123.994468,13.2390833 L124.419037,13.4876481 L125.596297,14.00955 L125.845856,14.1209407 L125.847695,14.1209407 L126.546061,14.5789741 L128.173966,16.0071685 L128.386418,16.0698574 L129.129581,16.0499722 L129.2506,16.071037 L129.55415,16.298537 L129.643577,16.2518574 L129.69389,16.1670926 L129.719799,16.1271537 L129.89882,16.0577241 L130.18181,16.0423889 L130.370025,16.0327833 L130.52648,16.0577241 L130.682768,16.1507463 L131.096305,16.4687407 L131.16534,16.5021074 L131.236045,16.5354741 L131.712934,16.6401241 L132.249161,16.8915537 L133.80636,17.9727685 L133.802683,17.9727685 L132.716688,17.7614463 L131.276998,17.1047296 L130.057114,16.7639852 L129.50016,16.7097222 L127.432809,17.540687 L126.302185,17.8205963 L125.823458,17.4941759 L125.821619,17.4929963 L125.964869,17.3350944 L125.883132,17.1751704 L125.821619,17.0152463 L126.100932,16.8715 L125.966875,16.6173741 L125.424797,16.1376019 L125.078456,15.9127981 L123.763629,15.5777833 L122.385284,14.7665352 L121.686751,14.48275 L120.949271,14.4589889 L121.290096,14.8885426 L122.983191,15.8957778 L123.42832,16.2328148 L123.765468,16.5696833 L123.897686,16.7488185 L124.027898,16.9277852 L124.245866,17.3350944 L123.983435,17.3770556 L123.7765,17.4550796 L123.608845,17.5560222 L123.521424,17.6244407 L123.463589,17.6682556 L122.960625,18.3440148 L122.754024,18.4515296 L122.292012,18.5209593 L121.729709,18.7029593 L121.2229,18.9587704 L120.949271,19.2509815 L120.960303,19.5620667 L121.07029,20.1102574 L121.096365,20.1901352 L121.250982,20.6298 L121.496697,20.8620185 L122.128202,21.1948426 L122.396316,21.2472519 L122.441113,21.3813926 L122.3908,21.5802444 L122.3908,22.9386722 L122.249221,23.5084333 L122.180354,23.7898593 L122.154278,23.8965315 L121.418637,25.8232037 L121.262181,26.6363056 L120.988384,27.2208963 L120.835606,27.7893093 L120.546933,28.0451204 L119.854083,28.3900778 L118.526051,29.602063 L118.32296,29.6649204 L118.015732,29.7228907 L117.803448,29.8388315 L117.896552,30.0725667 L118.015732,30.2779907 L118.08276,30.5496426 L118.13859,31.1017093 L118.13859,31.1244593 L118.097637,32.7777944 L118.053007,33.0297296 L118.604111,34.4793259 L118.401187,36.7512926 L118.188736,37.2184259 L118.13859,37.4273889 L118.121874,37.4435667 L118.090282,37.4739 L117.862954,38.187913 L117.825679,38.3028426 L117.527645,38.6275778 L117.158905,38.8810296 L116.847833,39.1877333 L116.715615,39.6644722 L116.715615,40.6354759 L116.66714,40.9762204 L116.551804,41.1310889 L116.400865,41.2589944 L116.261125,41.5181759 L116.043324,43.7960407 L115.829034,44.772437 L115.78056,45.2599611 L115.719047,45.5181315 L115.419174,45.9146556 L115.311193,46.1357519 L115.266563,46.3966185 L115.311193,46.4913259 L115.35599,46.5341296 L115.393266,46.5683389 L115.454778,46.7341611 L115.467649,46.7720778 L115.467649,46.7779759 L115.475171,46.9769963 L115.449095,47.460813 L115.467649,47.7415648 L115.538522,47.91615 L115.652186,48.0831519 L115.750806,48.2823407 L115.78056,48.5516333 L115.009649,50.036787 L115.07651,50.2890593 L115.305677,50.4370185 L115.508601,50.6948519 L115.590506,50.7971426 L115.657702,50.9213407 L115.830873,51.24675 L115.933505,51.6618111 L115.393266,52.047887 L114.331508,51.9634593 L113.601383,51.4277389 L114.05955,50.4606111 L113.946053,50.3239426 L113.545554,49.8431593 L113.515801,49.3805759 L113.500924,49.1492 L113.888218,47.9001407 L113.908611,47.7284204 L113.888218,47.1771963 L113.925493,46.9296426 L114.009404,46.8642574 L114.115547,46.8527981 L114.216006,46.7720778 L114.447011,46.3074722 L114.668489,45.6736741 L114.398704,45.6755278 L114.176892,45.5863815 L114.007398,45.4156722 L113.983328,45.3691611 L114.052028,45.1738481 L114.320309,44.4050667 L114.6608,43.7502037 L114.636396,43.6307241 L113.992689,44.6509352 L113.888218,44.9411241 L113.785753,45.3853389 L113.528672,45.9136444 L113.17297,46.3775759 L112.796875,46.6279944 L112.914217,47.0454148 L113.035235,48.4225481 L112.95333,48.8561463 L112.903017,48.776437 L112.903017,48.7526759 L112.895495,48.7461037 L112.889979,48.739363 L112.796875,48.6967278 L112.796875,49.4430963 L113.372216,52.070637 L113.746639,53.0214185 L113.977645,54.2263259 L114.249603,54.7996259 L114.311116,55.1012741 L114.83815,57.7117944 L114.836311,58.5702278 L114.869909,58.7834037 L114.90334,58.9965796 L115.07651,59.3177759 L115.205051,59.6682944 L115.176969,59.8929296 L115.149222,60.1163852 L115.035558,60.5835185 L114.998283,60.9859407 L114.834472,60.8732019 L114.763599,60.88365 L114.668489,60.9859407 L114.808397,61.2870833 L115.933505,69.5933611 L115.886869,69.7581722 L115.799281,69.9302296 L115.762006,70.1149259 L115.843911,70.2822648 L115.858787,70.3146204 L115.993011,70.4054519 L116.294723,70.4715111 L116.402704,70.5465019 L116.518207,70.8028185 L116.56852,71.1142407 L116.56852,71.1189593 L116.574036,71.8302759 L116.560998,71.8173 L116.559159,71.8173 L116.501491,71.8324667 L116.436134,71.9259944 L116.402704,72.1484389 L116.261125,72.1484389 L116.153144,71.9610463 L115.933505,71.1823222 L115.825357,70.9789204 L115.702332,70.8065259 L115.616582,70.5834074 L115.624104,70.2285074 L115.473165,70.8048407 L116.56852,74.7311537 L116.56852,74.7358722 L116.574036,75.0055019 L116.514362,75.270413 L116.287201,75.8219741 L116.261125,75.8870222 L116.261125,77.5592315 L116.290878,77.7331426 L116.60195,79.488263 L118.563326,84.5675796 L119.040214,85.8038315 L119.055091,85.9010667 L119.2301,87.119287 L119.174104,87.1219833 L119.172265,87.1219833 L119.055091,87.1088389 L118.943265,87.1418685 L118.917189,87.277863 L118.98054,87.4056 L119.082838,87.496263 L119.181458,87.5565926 L119.2301,87.5955204 L119.326882,87.9940667 L119.591318,89.0835389 L120.01221,89.8450741 L120.20594,90.9284796 L120.395994,91.328037 L120.435107,91.4453259 L120.435107,91.4470111 L120.429591,91.6396278 L120.424075,91.832413 L120.424075,91.8342667 L120.468705,92.0496333 L121.524612,94.3010407 L121.731548,94.5740407 L121.809775,94.6770056 L121.867443,94.7789593 L121.859921,94.9754519 L121.888003,95.0735296 L121.939988,95.1368926 L121.95687,95.1586315 L121.958709,95.1594741 L122.111487,95.2804704 L123.975914,97.2755611 L124.402321,97.6228778 L124.569976,97.4501463 L124.573653,97.4521685 L124.79346,97.5598519 L124.905285,97.6144519 L125.402566,98.0175481 L125.687562,98.0778778 L126.088061,98.1611259 L127.065908,98.5150148 L127.227879,98.5726481 L127.227879,98.5746704 L127.2466,98.5857926 L127.317306,98.6292704 L127.462562,98.8378963 L127.49967,98.8709259 L127.54079,98.9049667 L127.65997,98.9088426 L127.74923,98.844637 L127.833141,98.7691407 L127.939283,98.7312241 L128.118137,98.7812741 L128.215086,98.8898 L128.291308,98.9995056 L128.401294,99.0483759 L128.548389,99.0701148 L129.16485,99.1599352 L129.511359,99.1333093 L129.89882,98.9049667 L129.971364,99.0165259 L130.068313,99.1636426 L130.191171,99.4157463 L130.383063,99.6073519 L130.760996,99.6820056 L132.085351,99.5232611 L132.245651,99.5714574 L132.476489,99.6422352 L132.878994,99.8518722 L133.258766,100 L133.418899,99.9641056 L133.579199,99.9263574 L134.136153,99.5052296 L134.450903,99.3242407 L134.756292,99.2071204 L135.14743,99.1504981 L135.149269,99.1513407 L136.086163,99.2071204 L136.492178,98.7312241 L137.373075,98.0743389 L138.254139,97.4162741 L138.470101,97.3311722 L138.851879,97.1830444 L139.472352,97.3055574 L139.818693,96.8129778 L140.396041,96.5881741 L141.66256,96.3559556 L142.817422,95.9555556 L145.199522,95.4390463 L145.69697,95.2181185 L146.194251,94.9149537 L146.460526,94.7959796 L146.661611,94.7412111 L146.786474,94.5937574 L146.831271,94.2027944 L146.918693,94.0169185 L147.056427,93.9791704 L147.093869,93.9697333 L147.097546,93.9687222 L147.261357,94.0991556 L147.263362,94.1190407 L147.30047,94.4542241 L147.302476,94.4542241 L150.060838,93.4645148 L150.910311,92.9997407 L155.158676,89.6276852 L155.739701,89.3130611 L156.173798,89.1817852 L157.50183,88.2303296 L158.220589,87.5036778 L160.375695,84.0600019 L160.627093,83.3887926 L160.470805,82.82375 L160.679412,82.4948019 L161.122535,81.7942704 L161.252915,81.3974093 L161.325459,81.1078944 L161.655085,80.4601093 L161.73348,80.0406667 L161.755879,79.5374704 L161.815552,79.1572926 L162.869621,75.4680852 L163,74.5437611 L162.962892,74.0596074 L162.728042,73.2375741 L162.672213,72.8693611 L162.780026,67.4004296 L162.208195,65.4208426 L161.856338,64.855463 L161.804186,64.3622093 L161.73348,64.1785241 L161.52855,63.9778185 L161.401848,63.9238926 L161.361063,63.9966926 L161.411209,64.1424611 L161.424414,64.1785241 L161.424414,64.3376056 L161.282835,64.5325815 L161.185886,64.8072667 L161.130057,65.129137 L161.111503,65.4548833 L161.111503,65.4633093 L160.954881,65.4633093 L160.951203,65.4633093 L160.956719,65.1178463 L160.78171,64.1795352 L160.779871,64.1785241 L160.638293,64.1785241 L160.453923,64.4169778 L160.269385,64.3782185 L160.246987,64.2883981 L160.224923,64.200263 L160.470805,64.0202852 L160.30315,63.8699667 L160.235955,63.7373426 L160.230439,63.7220074 L160.191158,63.6055611 L160.079499,63.4569278 L159.962158,63.2504926 L160.060778,63.1084315 L160.224923,62.9805259 L160.314182,62.8206019 L160.288107,62.7296019 L160.180293,62.5042926 L160.176448,62.4948556 L160.157727,62.430313 L160.288107,61.8413407 L160.314182,61.7948296 L159.893291,60.7102444 L159.766589,60.5247056 L159.23571,60.1276759 L158.965758,60.0311148 L158.965758,60.0329685 L159.05134,60.3494463 L158.909761,60.5247056 L158.799942,60.3049574 L158.760828,60.1448648 L158.790581,60.0112296 L158.907755,59.873887 L158.909761,59.8728759 L158.660202,59.4524222 L158.421674,59.1757148 L158.118291,58.8887278 L157.814741,58.6015722 L157.85001,58.3523333 L157.792342,58.2802074 L157.706593,58.1780852 L157.458872,58.0530444 L157.188919,57.9507537 L157.01742,58.1885333 L156.790259,58.2738037 L156.525822,58.235887 L156.252026,58.1098352 L156.413997,57.5933259 L156.652525,57.3471204 L156.922477,57.3231907 L156.961591,57.3196519 L156.965435,57.3196519 L157.345207,57.4607019 L157.639397,57.7176926 L158.202035,58.4404685 L158.436885,58.6015722 L158.438556,58.6005611 L158.945198,58.4461981 L158.889369,57.9960852 L158.570775,57.4871593 L157.583735,56.4450407 L157.527906,56.3520185 L157.347213,56.0517185 L157.188919,55.5655426 L157.032297,55.5655426 L156.548221,55.6546889 L156.544376,55.6546889 L156.216589,55.2736685 L156.071333,55.1049815 L155.803052,54.3107537 L155.87008,54.0566278 L155.937109,53.8025019 L155.980067,53.7760444 L156.022858,53.7485759 L156.091726,53.7012222 L156.145716,53.6641481 L156.252026,53.6575759 L156.084371,53.3778352 L155.900001,53.234763 L155.616843,53.0158574 L155.456543,52.7029185 L155.451027,52.5625426 L155.44735,52.4176167 L155.527416,52.229887 L155.575891,52.0411463 L155.510701,51.8818963 L155.456543,51.7511259 L155.456543,51.7492722 L155.33753,51.8421259 L155.10268,51.9557074 L154.989016,52.0507519 L154.987177,52.0526056 L154.972468,51.9482926 L154.946392,51.9017815 L154.93887,51.8876259 L154.89424,51.8326889 L154.843927,51.7492722 L154.944553,51.6335 L154.843927,51.4164481 L154.776899,51.5234574 L154.629637,51.6355222 L154.517978,51.7492722 L154.234821,51.0912074 L154.071011,50.8161852 L153.815768,50.5335796 L153.624043,50.2101926 L153.435828,49.3691167 L153.396715,49.2971593 L153.251458,49.0297204 L153.111718,49.0297204 L152.977494,49.5303889 L152.593878,49.5625759 L152.592206,49.5625759 L152.189701,49.2648037 L152.003493,48.776437 L151.964379,48.7034685 L151.96254,48.7024574 L151.76881,48.6426333 L151.692421,48.5516333 L151.65899,48.4114259 L151.65899,48.2956537 L151.65899,48.2936315 L151.675705,48.2274037 L151.692421,48.2348185 L151.664506,48.0024315 L151.692421,47.2634778 L151.860075,47.2634778 L152.208423,48.2368407 L152.241853,48.3723296 L152.472859,49.3332222 L152.472859,49.3303574 L152.888235,48.7508222 L152.707542,47.6894926 L152.230821,46.0607611 L152.159948,45.818937 L152.159948,45.8169148 L152.111641,45.4384222 L152.08172,45.3357944 L151.906711,44.7173315 L151.761455,43.825363 L151.515405,43.7134667 L151.206339,43.7134667 L151.202662,43.7134667 L151.062922,43.6469019 L150.910311,43.5739333 L150.785615,43.2835759 L150.776254,43.2257741 L150.6661,42.4682833 L150.675461,42.2992593 L150.941903,42.4303667 L151.245453,43.0491667 L151.536132,43.2549278 L151.524766,42.9408093 L151.513734,42.6277019 L151.156026,41.4261648 L150.994055,40.4922352 L150.804001,40.1732296 L150.550764,39.8998926 L150.27329,39.7384519 L150.271284,39.7364296 L150.018214,39.7183981 L149.779519,39.7923778 L149.178102,40.0707704 L149.412618,40.6174444 L149.056916,40.8452815 L148.00452,40.8660093 L147.501556,40.7200722 L147.144182,40.3678685 L146.84782,39.9453926 L146.520199,39.5931889 L146.043311,39.9908926 L145.689448,40.0459981 L145.584977,39.8351815 L145.881173,39.4327593 L146.263285,39.2692963 L146.66345,39.362487 L147.060271,39.6102093 L147.309831,39.8067019 L147.444055,39.9103407 L147.613381,39.5503852 L147.523954,39.3141222 L147.361983,39.0928574 L147.30047,38.7814352 L147.48133,38.3798556 L147.734734,38.4226593 L147.887178,38.7244759 L147.769837,39.1004407 L147.771842,39.1004407 L148.339829,39.0074185 L148.267117,38.4395111 L147.771842,37.3495333 L147.769837,37.3476796 L147.684254,37.3941907 L147.641296,37.4179519 L147.469964,37.4624407 L147.518438,37.2516241 L147.756966,37.1407389 L147.92462,36.9715463 L147.926459,36.5509241 L147.714007,36.2022593 L147.077154,35.499537 L146.984551,35.3638796 L146.92237,35.1527259 L146.920531,35.1518833 L146.795835,35.1234037 L146.721452,35.2106963 L146.66345,35.4348259 L146.341513,34.2142463 L146.060194,33.6072426 L145.497556,33.3489037 L145.495885,33.3478926 L145.363499,33.206337 L145.238803,33.074387 L144.747038,31.868637 L144.411729,31.594963 L143.992843,31.4714389 L143.692803,31.1559722 L142.959,29.8814667 L142.132094,28.8710296 L142.128249,28.8691759 L141.975471,29.2542407 L141.740955,29.6704815 L141.4242,29.9699389 L141.036906,30.0004407 L140.677359,29.7141278 L140.675521,29.7132852 L140.891483,29.4537667 L141.135359,29.22475 L141.137365,29.2228963 L140.865574,29.0289315 L140.858052,28.5840426 L140.030978,27.8007685 L139.937874,27.6694926 L139.770386,27.4339037 L140.135282,27.6029278 L140.762942,27.7665593 L141.036906,27.9130019 L141.288304,28.3216593 L141.349817,28.3900778 L141.562101,28.3130648 L141.668244,28.1487593 L141.670082,27.9851278 L141.61793,27.9406389 L141.584333,27.9130019 L141.142881,27.6221389 L140.708951,26.9507611 L140.384841,26.2025389 L140.37197,26.1445685 L140.254462,25.680637 L140.254462,25.6786148 L140.150158,25.752763 L140.07193,25.7908481 L140.003063,25.848987 L139.926842,25.9827907 L139.774064,25.9827907 L139.770386,25.9827907 L139.721912,25.4770667 L139.718067,25.448587 L139.386602,25.2374333 L139.014018,25.1757556 L138.835331,25.0909907 L138.963872,24.7581667 L139.267422,24.7638963 L139.751498,24.9453907 L139.926842,25.011113 L139.056976,23.2526222 L138.835331,22.8063852 L138.593126,22.081587 L138.444193,21.9798019 L138.127605,22.0549611 L138.06977,22.2509481 L138.181595,22.5163648 L138.365798,22.8063852 L138.363959,22.8055426 L137.900276,22.5477093 L136.711984,21.4270611 L136.682064,21.3680796 L136.592804,21.1815296 L136.773496,21.1264241 L137.186866,21.1948426 L137.188872,21.1968648 L137.32109,21.2652833 L137.56129,21.5794019 L137.564967,21.5802444 L137.583521,21.5888389 L137.739976,21.6601222 L137.741982,21.6591111 L138.019456,21.5118259 L137.706546,21.1016519 L137.214781,20.6336759 L136.957699,20.3101204 L136.797734,20.037963 L136.773496,19.9961704 L130.453936,14.81035 L129.559833,14.2933352 L129.118214,13.9648926 L126.121492,10.3987037 L125.910879,10.078687 L125.7006,9.31260185 L125.384012,9.08678704 L124.927517,9 Z M116.44555,10.6994958 L116.299969,11.09472 L116.241262,11.5819125 L115.984375,11.9625817 L116.547693,13.0265359 L116.906894,13.535481 L117.266094,13.7822762 L117.267961,13.7822762 L117.560988,13.7496474 L117.978726,13.5164475 L118.14331,13.5543545 L118.375764,13.6927069 L118.704762,13.7894737 L119.011024,13.7875543 L119.171875,13.6303284 L119.092298,13.471343 L119.067695,13.4208004 L118.767202,13.2587761 L118.408002,13.1133861 L118.14331,12.9550405 L118.086639,12.816848 L118.052534,12.4832027 L117.977029,12.4173053 L117.526883,12.4406573 L117.428642,12.4173053 L117.345332,12.3267765 L117.239625,12.2120959 L117.160217,12.0358365 L117.139347,11.9870532 L117.137481,11.9724982 L117.103546,11.7293818 L117.094044,11.4245266 L117.156315,11.1225504 L117.247091,10.8615201 L117.224354,10.6742245 L117.220621,10.6732648 L116.952366,10.5964912 L116.44555,10.6994958 Z M112,15.6193907 L112,16.5308246 L112.217816,16.811352 L112.715659,16.9824561 L113.251357,16.9497733 L113.424337,16.7813928 L113.59375,16.6131724 L113.348319,16.0756683 L113.239411,15.9933205 L112.802072,15.9587152 L112.435632,15.8393588 L112.347513,15.6030493 L112.202302,15.4157639 L112.062211,15.3859649 L112,15.6193907 Z M113.149568,25.7631579 L112.866391,25.8709096 L112.796875,26.1061968 L112.905703,26.3413075 L113.149568,26.4481759 L113.628508,26.5068211 L113.803176,26.5596371 L114.13078,26.65838 L114.577758,26.8795359 L115.024577,27.1006918 L115.925726,27.9916745 L116.151692,28.1192101 L116.328119,28.2705924 L116.563034,28.589608 L116.90502,28.8824806 L117.428546,28.9561404 L117.232623,28.5677044 L116.785804,28.0015665 L116.217692,27.2842229 L116.588124,27.3559396 L117.218401,27.7026881 L117.576367,27.7853566 L117.578125,27.7864164 L116.83039,26.9830482 L115.939949,26.409138 L115.006999,26.0143429 L114.5597,25.886984 L114.127104,25.7631579 L113.149568,25.7631579 Z M159.015625,57.6959965 L159.13464,57.9801993 L159.102796,58.2183056 L159.027366,58.4434694 L159.015625,58.6977095 L159.094791,58.9379433 L159.212027,59.1833187 L159.307026,59.3825975 L159.348654,59.6396743 L160.163616,60.8353474 L160.264486,61.053774 L160.532048,61.2808881 L160.603564,61.813303 L160.502516,63.3545227 L160.498424,63.4043424 L160.516215,63.525789 L160.532048,63.6474129 L160.581504,63.6982964 L160.686821,63.8087508 L161.029813,64.0789474 L161.390239,63.7809156 L161.40625,63.2928243 L161.40625,63.290874 L160.993877,61.155541 L160.720444,60.7220563 L160.12768,59.7809779 L159.901569,59.1732129 L159.848199,59.0315547 L159.628314,58.7048013 L159.328908,57.9979287 L159.015625,57.6929825 L159.015625,57.6959965 Z" id="Fill-1" fill="#054F9A"></path>
                    <g id="Group-13" transform="translate(0.000000, 24.000000)">
                        <g id="Group-3" transform="translate(0.000000, 0.042362)">
                            <mask id="mask-2" fill="white">
                                <use xlink:href="#path-1"></use>
                            </mask>
                            <g id="Clip-2"></g>
                            <path d="M29.6414114,0.123114254 C13.2708561,0.123114254 0,13.3938049 0,29.7645257 L0,29.7645257 C0,46.135081 13.2708561,59.4059371 29.6414114,59.4059371 L29.6414114,59.4059371 C46.0119667,59.4059371 59.2828228,46.135081 59.2828228,29.7645257 L59.2828228,29.7645257 C59.2828228,13.3938049 46.0119667,0.123114254 29.6414114,0.123114254 Z" id="Fill-1" fill="url(#radialGradient-3)" mask="url(#mask-2)"></path>
                        </g>
                        <g id="Group-12" transform="translate(1.323809, 4.510218)">
                            <path d="M53.3434867,15.6785175 C53.2425463,15.7677091 52.7881488,15.8570663 52.6367381,15.6785175 C52.4853274,15.4994723 52.1333596,15.7079723 52.1078763,16.0357805 C52.0830549,16.3640852 52.2088168,16.1251376 52.3598965,16.2442805 C52.5114726,16.3640852 52.56095,16.5426339 52.6623869,16.7213482 C52.7636583,16.9000624 52.939394,16.8403255 53.0658177,16.9890886 C53.1925725,17.1381826 52.7125262,17.3167314 52.9145725,17.495942 C53.115957,17.6748217 53.2168975,18.3893478 53.2425463,18.5683929 C53.2681951,18.7471072 52.6880357,18.8362988 52.5114726,18.8066786 C52.3345786,18.7773893 51.8052204,18.5683929 51.6284919,18.5088215 C51.4517634,18.4490846 51.3506575,17.7047729 51.5776907,17.7338967 C51.8052204,17.7641789 51.8555252,17.6748217 52.1078763,17.4067504 C52.3598965,17.1381826 51.7295978,17.0190398 51.5528693,16.9597993 C51.3759753,16.9000624 51.0235111,16.2442805 50.8970873,16.0357805 C50.77116,15.827446 50.8689564,15.5021199 51.1750873,15.2608557 C51.3263325,15.1415474 51.7295978,15.4099497 51.9311478,15.2608557 C52.1333596,15.1124236 52.3345786,14.9338748 52.4100358,14.873476 C52.4853274,14.8145665 52.9900297,14.9629986 53.0658177,15.1415474 C53.1411094,15.3207581 53.4447581,15.5889949 53.3434867,15.6785175 M49.4097877,17.1381826 C49.2074104,17.1979195 48.6025951,17.2574909 48.3758928,17.2273742 C48.1491904,17.1979195 47.8715215,16.9295172 47.5435477,16.8697803 C47.215574,16.8105398 46.8121432,16.8403255 46.6865468,17.0488255 C46.5599575,17.2574909 46.1052291,17.1679683 45.9040101,17.1679683 C45.7026256,17.1679683 45.4504399,17.4659909 45.4003007,17.347179 C45.4003007,17.347179 45.5515459,16.8105398 45.4003007,16.7508029 C45.2490555,16.6910661 45.4504399,16.3334721 45.6016851,16.2144947 C45.7527649,16.0958483 45.9293279,15.7973294 46.0804076,15.4994723 C46.2316528,15.2017807 46.4341956,15.1716641 46.5599575,15.2017807 C46.6865468,15.2312355 46.9632229,15.7677091 47.03868,15.9465889 C47.1146336,16.1251376 47.3671502,15.8871829 47.4680906,15.827446 C47.5678727,15.7677091 47.7206072,15.5889949 47.7444358,15.4400664 C47.7702501,15.2913033 47.9966214,15.2017807 48.249138,15.2017807 C48.5018201,15.2017807 48.2749523,15.4400664 48.0978928,15.4994723 C47.9211643,15.5590437 48.0226012,15.6785175 48.3252571,15.7973294 C48.6274165,15.9168032 48.9050855,16.2442805 49.2328937,16.4532768 C49.5608675,16.6609494 49.6108412,17.0784457 49.4097877,17.1381826 M46.2574671,10.1362249 C46.3830635,9.71972142 47.0896467,10.2254165 46.9632229,10.4345784 C46.837792,10.6432438 46.171585,10.4172034 46.2574671,10.1362249 M46.7363551,32.4826203 C46.5096528,32.422387 46.5854408,31.7379776 46.6607325,31.5885527 C46.7363551,31.4389622 47.1727157,31.4005718 47.2412228,31.5291467 C47.3671502,31.7674324 46.9632229,32.5418608 46.7363551,32.4826203 M57.9389248,24.2561391 C57.7252951,18.0724609 55.6187837,12.3701529 52.1791965,7.71084099 C52.1373311,7.7273886 52.089012,7.7419505 52.0317573,7.75320288 C51.5776907,7.84239452 51.3006837,7.66384576 51.1750873,7.84239452 C51.048498,8.02177067 50.8722659,8.34891701 50.7966433,8.13992064 C50.7213517,7.93175164 51.048498,7.57448864 50.9227361,7.45501486 C50.7966433,7.33570656 50.2666232,7.3951125 50.191497,7.48446962 C50.115709,7.57448864 50.1656828,7.90213141 50.215822,8.02177067 C50.2666232,8.13992064 50.3424113,8.6168229 50.191497,8.52746578 C50.0400864,8.43827413 50.0647423,8.13992064 49.9133316,8.17020277 C49.7622519,8.20048491 49.5865163,8.28967655 49.5108937,8.34891701 C49.4352711,8.40815747 49.1319533,8.40815747 49.0563307,8.52746578 C48.9808736,8.64677408 49.081814,8.9747478 48.9552247,9.00420256 C48.8296284,9.03382279 48.728357,9.15329657 48.4516808,8.94446567 C48.1735154,8.73629667 48.1735154,8.85510855 48.0978928,8.91484544 C48.0226012,8.9747478 47.6693096,9.21286798 47.6433299,8.94446567 C47.6193358,8.67655979 47.6947929,8.58687171 47.4680906,8.40815747 C47.2412228,8.22944323 47.4169585,8.22944323 47.7206072,8.34891701 C48.0226012,8.46822532 48.4003832,8.52746578 48.9552247,8.31880035 C49.5108937,8.11112779 49.7377615,8.02177067 49.5108937,7.90213141 C49.2835294,7.78265763 49.1013402,7.40388273 48.7480486,7.34381489 C48.3955844,7.28424348 47.8715215,7.54420651 47.3166799,7.30608633 C46.7620039,7.06713877 46.6354146,6.97778165 46.4085468,6.91854119 C46.181679,6.85946621 44.7969746,6.14047234 44.166345,6.25862231 C43.5360464,6.37809609 41.7934171,7.36582322 41.6931385,7.45501486 C41.5918671,7.54420651 41.4411184,7.90213141 41.1129792,8.20048491 C40.7850054,8.49734912 40.2152711,8.79239309 39.7355557,8.91120496 C39.2561713,9.03067874 38.6677381,9.89843566 38.6677381,10.0170821 C38.6677381,10.1362249 38.8686262,10.5833414 38.8189833,10.672864 C38.7675202,10.7622212 38.9187654,11.2093377 39.1965999,11.3284805 C39.4737724,11.4469615 39.9533223,11.4181686 39.9784747,11.2392889 C40.0037925,11.0602437 40.3819055,10.672864 40.4072234,10.9414318 C40.4315484,11.2093377 40.6838995,11.6258412 40.6340912,11.8050518 C40.5827936,11.9836006 40.6340912,12.1628113 40.8094959,12.1326946 C40.9862244,12.1030744 41.9201718,11.8646232 41.9201718,11.8646232 C41.9201718,11.8646232 42.2224967,11.7148673 42.1726884,11.4772436 C42.1213908,11.2392889 42.5001657,10.9109842 42.5759538,10.8217926 C42.6515764,10.7324354 42.9285834,10.374676 42.6011062,10.2558641 C42.272636,10.1362249 42.0201194,10.1061082 42.373411,9.7490107 C42.727199,9.39158222 42.9539013,9.7490107 43.4073059,9.21286798 C43.8617034,8.67655979 43.3063655,8.52746578 43.7862463,8.49734912 C44.2652998,8.46822532 44.7693401,8.43827413 44.6679032,8.6168229 C44.5679556,8.79537166 43.9877963,9.18341323 43.6596571,9.36196199 C43.3313524,9.54117266 43.3819881,9.868319 43.5082464,10.0470332 C43.6341737,10.2254165 43.6853059,10.6432438 43.9121737,10.5833414 C44.1387105,10.5239355 44.4167104,10.3149391 44.6679032,10.3452213 C44.9199234,10.374676 45.4259495,10.3149391 45.5002483,10.3149391 C45.5766982,10.3149391 45.9293279,10.7324354 45.7281089,10.7923378 C45.5258971,10.8512473 45.2738769,10.8217926 44.8446318,10.8512473 C44.4167104,10.8815295 43.9371606,10.8815295 43.9371606,10.9708866 C43.9371606,11.0602437 44.516989,11.2682472 44.3152736,11.4181686 C44.1140546,11.5664352 43.9121737,11.3878865 43.6596571,11.3577698 C43.4073059,11.3284805 43.2560607,11.7451495 43.1802727,11.9836006 C43.104981,12.2220517 43.3063655,12.6393826 42.9285834,12.490454 C42.5501395,12.3411946 42.272636,12.3411946 42.1726884,12.4009314 C42.0712515,12.4608338 41.8867456,12.348641 41.6347254,12.4378326 C41.3823743,12.5276862 41.3651648,12.5204052 41.0373566,12.5204052 L40.7095483,12.5204052 L40.507171,12.5503564 C40.507171,12.5503564 40.3061175,12.4009314 40.2804687,12.1628113 C40.2559782,11.9236982 40.3819055,11.6557923 40.2559782,11.5965519 C40.1293889,11.536484 39.6758188,11.6258412 39.6001962,11.8050518 C39.5244081,11.9836006 39.4481236,12.3117398 39.5492296,12.4608338 C39.6503355,12.6094314 39.9533223,12.9074539 39.6758188,12.8180968 C39.3979844,12.7287397 39.0453547,12.698954 38.8431428,12.8778337 C38.6419238,13.0568789 38.2886323,13.4434312 38.2886323,13.4434312 C38.2886323,13.4434312 37.6581681,13.5036645 37.6581681,13.6823787 C37.6581681,13.8609275 37.6581681,14.0992131 37.4316313,14.1294953 C37.204598,14.15895 36.9016112,14.2483072 36.5989553,14.3078786 C36.2964649,14.3677809 36.3221137,14.5163785 35.9684912,14.5464952 C35.6148687,14.5764464 35.5652258,14.7551606 35.8930341,14.8145665 C36.2206768,14.873476 36.7247172,15.1124236 36.7502005,15.380495 C36.7755184,15.6488973 36.7247172,15.9465889 36.5989553,16.2144947 C36.5124113,16.3985042 35.9939745,16.2745626 35.6908222,16.2745626 C35.3883318,16.2745626 34.783682,16.1550888 34.5313309,16.2745626 C34.2791452,16.3930435 34.32945,16.9890886 34.4045761,17.2574909 C34.4803642,17.5257277 34.3792583,17.6748217 34.2791452,17.7641789 C34.1778738,17.8533705 34.1525559,18.1214419 34.2791452,18.2405847 C34.4045761,18.3597275 34.505682,18.6274679 34.6069535,18.6577501 C34.7080594,18.6872048 35.0350402,18.5683929 35.161795,18.717487 C35.2870604,18.866581 35.4136497,19.2243404 35.4896032,19.1346523 C35.5652258,19.0451297 35.6655044,18.6577501 35.7919281,18.7471072 C35.9188484,18.8362988 36.2206768,18.717487 36.4477101,18.6872048 C36.6744124,18.6577501 36.8001743,18.3597275 37.0278695,18.210799 C37.2545718,18.0622014 37.1291409,18.0622014 37.0526909,17.8834872 C36.9767374,17.7047729 37.2800551,17.495942 37.4569491,17.2872766 C37.6328503,17.0784457 37.9604931,17.2574909 38.0361157,17.0190398 C38.1117383,16.7804232 38.1373871,16.3640852 38.3382751,16.3930435 C38.5406524,16.4231602 38.8189833,16.5715923 38.994388,16.5715923 C39.1711166,16.5715923 39.5492296,16.2442805 39.6503355,16.1852055 C39.7512759,16.1251376 40.1293889,16.1550888 40.1803556,16.4231602 C40.2304949,16.6910661 40.6587471,17.0190398 40.7596876,17.0784457 C40.860628,17.1381826 41.5169064,17.3767992 41.6173505,17.4659909 C41.71796,17.555348 41.8690397,17.8230884 41.9201718,18.0622014 C41.9701456,18.2998252 42.2719741,18.5846096 42.2979538,18.3757787 C42.3219479,18.1679407 42.0459337,17.495942 42.2224967,17.5257277 C42.3990598,17.555348 42.6011062,17.4659909 42.6011062,17.4659909 C42.6011062,17.4659909 42.1213908,17.0784457 41.9448277,16.9890886 C41.7687611,16.9000624 41.4411184,16.7213482 41.2895422,16.4231602 C41.1387934,16.1251376 40.7596876,16.0657317 40.7850054,15.7677091 C40.8094959,15.4698521 41.1632839,15.6488973 41.3651648,15.8871829 C41.5667148,16.1251376 42.0712515,16.4532768 42.2478146,16.6609494 C42.4245431,16.8697803 42.7015502,16.9597993 42.7771728,17.2273742 C42.8526299,17.495942 43.0796632,17.794461 43.1549548,17.9124455 C43.2305774,18.0320848 43.2767453,18.9804286 43.3526988,19.1293571 C43.4279905,19.2782856 43.8873522,18.8066786 44.0131141,18.6872048 C44.1387105,18.5683929 44.3655783,18.5088215 44.3912271,18.269874 C44.4167104,18.0320848 44.0885712,17.8533705 43.9877963,17.7641789 C43.8873522,17.6748217 44.2394855,17.5852992 44.3655783,17.4659909 C44.492333,17.347179 44.7188699,17.1381826 44.818983,17.3167314 C44.9199234,17.495942 44.870446,18.210799 44.9199234,18.3301073 C44.971221,18.4490846 45.4759233,18.6274679 45.5766982,18.7773893 C45.6773077,18.9259869 46.1052291,18.9853928 46.181679,18.8962012 C46.2574671,18.8066786 46.6607325,18.9559381 46.7620039,18.9853928 C46.8624479,19.0155095 47.1652693,18.9259869 47.3671502,18.866581 C47.5678727,18.8066786 47.7702501,18.6274679 47.7444358,19.0155095 C47.7206072,19.4028892 47.6433299,19.9981069 47.3921371,20.2961294 C47.1399514,20.5941519 47.2412228,20.7439079 46.9887062,20.7439079 C46.8715491,20.7439079 46.7654789,20.7445698 46.6800932,20.7920614 C46.5978515,20.6393269 46.4843349,20.5200186 46.3327588,20.5648627 C46.0304338,20.6538888 45.6518244,20.6538888 45.4003007,21.0116483 C45.1479495,21.3692422 45.0470091,21.3980351 44.9960424,21.2795542 C44.9459032,21.1604113 45.7281089,20.6538888 45.627003,20.5049603 C45.5258971,20.3561972 44.9199234,20.4156032 44.5924461,20.4156032 C44.2652998,20.4156032 43.9877963,20.177483 43.7354451,20.1175806 C43.483094,20.0576783 43.3626274,20.66994 43.1111036,20.9679626 C42.858918,21.2656542 42.4746824,20.8031483 42.2478146,20.8031483 C42.0201194,20.8031483 41.5918671,20.4156032 41.5918671,20.4156032 C41.5918671,20.4156032 41.1632839,20.2069378 40.9862244,20.2069378 C40.8094959,20.2069378 40.4571972,19.8197236 40.3562567,19.8197236 C40.2559782,19.8197236 39.9784747,19.5514867 40.1803556,19.432013 C40.3819055,19.313532 40.8109852,19.573826 40.6096007,18.9182095 C40.4085472,18.262924 39.7257926,18.3893478 39.5492296,18.4785394 C39.3726665,18.5683929 38.1117383,18.5382763 38.0106323,18.5382763 C37.9105193,18.5382763 37.1792802,18.8362988 36.9522469,18.9559381 C36.7247172,19.0745845 36.3221137,19.2243404 36.2206768,19.2835809 C36.1200673,19.3426558 35.5900472,19.1637761 35.363014,19.313532 C35.0635021,19.5101177 34.783682,19.8197236 34.7080594,19.8197236 C34.6324368,19.8197236 34.4045761,20.028389 34.2536619,20.4753401 C34.1025822,20.9222911 34.2791452,21.308678 34.0014762,21.4585993 C33.7243037,21.6070314 33.1259419,21.8451516 32.9235646,22.0831063 C32.7220147,22.3217229 32.5643159,23.2459072 32.3116338,23.6331214 C32.0597791,24.020832 32.3116338,24.378095 32.3629314,24.6162152 C32.4129052,24.8548318 32.5896337,25.3021138 32.3116338,25.7187828 C32.0346267,26.1359481 32.0597791,26.3442826 31.9335208,26.3742338 C31.8079244,26.4040195 32.0597791,26.5233278 32.1104148,26.8215158 C32.1607196,27.1192074 31.883547,27.4170645 32.3629314,27.6853013 C32.8418194,27.9535381 33.2798347,27.9656179 33.4057621,28.32255 C33.5321859,28.6809713 33.951337,29.5025604 33.951337,29.5025604 C33.951337,29.5025604 34.4045761,29.9799591 34.6324368,30.1882935 C34.8593046,30.3969589 34.9352581,30.2776506 34.9850664,30.0694816 C35.0350402,29.8601543 35.3381925,29.8305341 35.6908222,29.8305341 C36.0441138,29.8305341 36.2964649,29.9202222 36.6487636,29.8601543 C37.0027171,29.8007484 37.2588742,29.2869449 37.3843051,29.2268771 C37.5110598,29.1678021 38.0361157,29.0863879 38.3640894,29.3240116 C38.6920631,29.5624627 38.6419238,29.890271 38.8189833,30.0986054 C38.994388,30.3074363 39.2968784,30.1882935 39.5244081,29.9799591 C39.7512759,29.7711282 39.6503355,29.8601543 39.9280045,30.039034 C40.2050115,30.2184102 40.3312698,30.3969589 40.0794151,30.6646993 C39.8267331,30.9334326 39.9784747,31.3499361 39.8267331,31.7674324 C39.6758188,32.1842668 39.9703664,32.1827775 40.2477044,32.3613263 C40.5258698,32.5400405 40.7596876,33.7039998 40.9106018,33.9126652 C41.0633363,34.1203377 40.860628,34.7172102 41.0373566,35.0753006 C41.2140851,35.4322326 41.294672,35.6493373 41.0917982,35.8278861 C40.8895864,36.0070968 40.6340912,36.355755 40.6081114,36.9516346 C40.5827936,37.5475142 40.7095483,37.9638522 40.8094959,38.1726831 C40.9106018,38.3813485 41.1632839,38.947277 41.2895422,39.1562733 C41.4151386,39.3652697 41.8500099,39.7500018 41.8756587,40.0779755 C41.9009766,40.4056183 41.5418933,40.9142919 41.6678207,41.0923443 C41.7934171,41.2715549 41.8690397,41.5394608 42.0955765,41.7787393 C42.3236027,42.017025 42.3990598,42.5228856 42.3990598,42.5228856 C42.3990598,42.5228856 42.4746824,42.73122 42.5001657,43.0588628 C42.5248216,43.3874984 42.5501395,43.5953365 42.8029871,43.7449269 C43.0550072,43.8935245 43.2305774,43.9236412 43.3568357,43.7743817 C43.483094,43.6257841 44.0202296,43.3332223 44.3473759,43.3633389 C44.6753497,43.3927937 45.1479495,43.4472353 45.4759233,43.1785021 C45.8030696,42.9097688 46.2819576,42.1954083 46.4590171,41.9867429 C46.6354146,41.7787393 47.03868,41.3903668 46.9887062,41.1524121 C46.9388979,40.9142919 46.6473289,40.5290635 46.8492098,40.4095897 C47.0515871,40.2907778 47.7206072,40.1989386 47.7444358,40.0197279 C47.7702501,39.8411791 47.5678727,39.0971984 47.5180644,38.947277 C47.4680906,38.7990103 47.6433299,38.5304426 47.8457072,38.2325855 C48.047919,37.9348939 48.5274689,37.6052654 48.6274165,37.4857916 C48.728357,37.3669798 49.1572711,36.9807584 49.2074104,36.5940407 C49.2583771,36.2068265 49.1066354,35.7292623 49.2074104,35.5215898 C49.3085163,35.3129243 49.2328937,35.1343756 49.0060259,34.8960899 C48.7784962,34.6573078 48.7632724,34.1077616 48.6878153,33.9892806 C48.6121927,33.8698069 48.728357,33.0780035 48.8796022,33.0182666 C49.0308473,32.9586952 49.3589866,32.363312 49.5608675,32.0954061 C49.7622519,31.8273348 50.3424113,30.9923421 50.6202457,30.9334326 C50.8970873,30.8738612 51.3263325,30.3969589 51.3506575,30.1283912 C51.3759753,29.8601543 52.1078763,28.8474403 52.1333596,28.6391058 C52.1586775,28.4304404 52.4610024,27.6548537 52.3345786,27.4761395 C52.2088168,27.2974252 51.2252265,27.7452037 51.0992992,27.8044441 C50.9728754,27.8638501 50.6202457,28.1024667 50.215822,28.072681 C49.8130531,28.0430607 49.9891197,27.6548537 49.9646293,27.4761395 C49.9393114,27.2974252 49.5108937,26.6126849 49.4097877,26.5830647 C49.3085163,26.5531135 49.0060259,26.196016 48.8796022,25.8380911 C48.7538403,25.4808281 48.2259714,25.2453555 48.0244214,24.9767877 C47.8222096,24.7090473 48.047919,23.8723999 47.8457072,23.4545726 C47.6433299,23.0372418 47.4680906,22.5012646 47.2913621,22.1138849 C47.2480073,22.0187361 47.201674,21.9273933 47.1555062,21.8408492 C47.3899859,21.7718457 47.7298739,21.6464148 47.7702501,21.8156969 C47.8200584,22.0245278 48.0978928,22.4711479 48.1491904,22.7994526 C48.1994952,23.126268 48.4763368,23.0076216 48.5018201,23.3056441 C48.5273034,23.6036666 48.7784962,24.3188546 48.8796022,24.4082117 C48.9808736,24.4974033 49.4352711,24.9741401 49.5108937,25.1530198 C49.5865163,25.3312376 49.6864638,25.5703507 49.7622519,26.0169708 C49.837709,26.4637564 49.9133316,27.0598015 50.115709,27.1491586 C50.3167625,27.2381848 50.9978623,27.0007265 51.1241206,26.9110384 C51.2505444,26.8215158 52.0830549,26.3442826 52.3852143,26.3143314 C52.6880357,26.2848767 52.737844,26.0460946 53.115957,25.956572 C53.4945664,25.8673803 53.771739,25.5403995 54.0239246,25.3021138 C54.2759448,25.0634972 54.5787662,24.4674521 54.6797066,24.2584558 C54.7811435,24.0506177 55.0334946,23.9011928 54.9064089,23.663569 C54.7811435,23.4246215 54.2504615,23.0670275 54.0495734,23.0372418 C53.8476925,23.0076216 53.8726794,22.6207383 53.7469176,22.6207383 C53.6206593,22.6207383 53.6461426,22.8284109 53.393626,22.9780013 C53.1411094,23.126268 52.8892547,23.4246215 52.7125262,23.3648846 C52.5364595,23.3056441 52.7636583,23.1563846 52.4853274,22.8884787 C52.2088168,22.6207383 52.1078763,22.5601741 52.1078763,22.3528324 C52.1078763,22.1438361 51.5528693,21.75596 51.5019027,21.4585993 C51.4517634,21.1604113 51.8806776,20.7439079 52.0067704,21.0116483 C52.1333596,21.2795542 52.2341346,21.696885 52.56095,21.8754338 C52.8892547,22.054148 53.1925725,22.3528324 53.3434867,22.4120729 C53.4945664,22.4711479 53.8726794,22.0842647 53.9986068,22.1438361 C54.125196,22.2030765 54.3773817,22.7392193 54.6042495,22.8284109 C54.8309518,22.9179335 55.5870123,22.9477192 55.7134361,22.9477192 C55.8400254,22.9477192 56.369549,22.9780013 56.470324,22.7994526 C56.5709335,22.6207383 56.6462251,22.6207383 56.7729799,22.6207383 C56.8984108,22.6207383 57.1254441,23.1563846 57.3020071,23.2156251 C57.4789011,23.275362 57.8062129,23.2459072 57.7808951,23.6331214 C57.7650094,23.8904368 57.836826,24.121276 57.9389248,24.2561391 M35.0608545,11.7754316 C34.9595831,11.6258412 34.8823058,11.3193793 35.0860069,11.2392889 C35.2372521,11.179221 35.3883318,11.3878865 35.5142592,11.2093377 C35.6410139,11.0306235 35.8175769,10.8512473 36.0189614,11.0003413 C36.2206768,11.1500972 36.7556612,11.023508 36.9320588,11.2321734 C37.1089528,11.439846 36.3975708,11.8345066 36.548816,11.9539804 C36.6997303,12.0729577 36.9522469,12.6094314 37.1792802,12.7287397 C37.406148,12.8482135 37.6581681,13.1755253 37.6833205,13.3841907 C37.7086384,13.5928561 37.3811611,13.9206644 37.1792802,13.9206644 C36.9767374,13.9206644 36.573472,13.7715704 36.3717566,13.7715704 C36.1708685,13.7715704 36.0942531,14.0394763 35.9684912,13.9797394 C35.8420674,13.9206644 35.9939745,13.7118335 35.9939745,13.7118335 C35.9939745,13.7118335 35.2839164,13.7920894 35.334883,13.6132097 C35.3850223,13.4346609 35.9684912,12.8482135 36.1708685,12.7287397 C36.3717566,12.6094314 35.8420674,12.490454 35.5900472,12.3709803 C35.3381925,12.2520029 35.161795,11.9236982 35.0608545,11.7754316 M34.1277345,12.7287397 C34.0767679,12.5204052 34.2536619,12.4608338 34.4045761,12.4608338 C34.5561523,12.4608338 34.5796499,12.1777041 34.8083379,12.1326946 C34.9595831,12.1030744 35.1364771,12.1326946 35.2372521,12.2520029 C35.3381925,12.3709803 35.3883318,12.6094314 35.3883318,12.8778337 C35.3883318,13.1464015 35.1364771,13.3249503 34.9595831,13.4141419 C34.783682,13.5036645 34.5561523,13.6823787 34.3544369,13.6520966 C34.1525559,13.6223109 33.9766548,13.2647169 34.1277345,13.1755253 C34.2791452,13.0861682 34.1778738,12.9377361 34.1277345,12.7287397 M41.1129792,18.4785394 C40.9862244,18.4194644 40.74314,18.2159288 40.8353102,18.1513931 C40.9618994,18.0622014 41.2895422,18.1513931 41.3651648,18.1513931 C41.4411184,18.1513931 41.6678207,18.1513931 41.7687611,18.4490846 C41.8690397,18.7471072 41.5418933,18.7773893 41.4411184,18.7471072 C41.3400124,18.717487 41.2397339,18.5382763 41.1129792,18.4785394 M37.8350621,17.6447051 C38.0106323,17.3167314 38.1373871,17.555348 38.0864204,17.6748217 C38.0361157,17.794461 37.7740014,17.7577253 37.8350621,17.6447051 M39.5492296,17.7641789 C39.3979844,17.6155813 39.5134867,17.1679683 39.7512759,17.1679683 C39.8772033,17.1679683 40.104733,17.4659909 39.9784747,17.6748217 C39.8525473,17.8834872 39.7004748,17.9124455 39.5492296,17.7641789 M52.1333596,36.7429692 C52.1586775,37.0699501 52.0067704,37.6368714 51.9311478,37.8155856 C51.8555252,37.9938034 51.7295978,38.6795366 51.5776907,39.0078412 C51.4261146,39.3349876 51.4017896,39.7220363 51.2505444,40.1102433 C51.0992992,40.4974575 50.9728754,40.6457242 50.6202457,40.6457242 C50.2666232,40.6457242 50.1403649,40.4372242 50.191497,40.1102433 C50.2413054,39.7816077 49.9133316,39.18639 50.0902256,38.9778901 C50.2666232,38.7688937 50.2912792,38.3216117 50.115709,37.8746606 C49.9393114,37.4280405 50.4933255,37.1892584 50.5945969,37.2198715 C50.6957029,37.2488298 50.9728754,36.9807584 51.2252265,36.6537776 C51.4772467,36.3261348 51.5136515,35.8315266 51.8300419,35.9380932 C52.0067704,35.9976646 52.1078763,36.4153264 52.1333596,36.7429692 M16.7532354,25.2425424 C16.7279176,25.6294256 16.6016593,25.2723281 16.5007188,25.2723281 C16.4007712,25.2723281 16.1226058,25.4808281 15.9715261,25.3914709 C15.8204464,25.3021138 15.7193405,25.1824746 15.5424465,25.1824746 C15.3662144,25.1824746 15.0890418,25.1233996 15.0890418,25.1233996 C15.0890418,25.1233996 15.5174596,24.6761176 15.6692012,24.6458354 C15.8204464,24.6162152 16.0469832,24.5564783 16.2486987,24.6162152 C16.450745,24.6761176 16.7787188,24.8548318 16.7532354,25.2425424 M17.4844745,25.4821519 C17.2076329,25.5799483 17.1528603,25.047446 17.3835341,24.9982996 C17.6105674,24.9496496 17.7624745,25.3858448 17.4844745,25.4821519 M14.1557563,25.8101256 C13.8782528,25.9072601 13.8238112,25.3757507 14.0551468,25.3266043 C14.2816837,25.2777888 14.4330944,25.713653 14.1557563,25.8101256 M13.9285576,22.858693 C14.1557563,22.8284109 14.3078289,23.0968132 14.029498,23.1563846 C13.7526565,23.2156251 13.6982148,22.8884787 13.9285576,22.858693 M14.2313789,24.4974033 C14.1052861,24.378095 13.651716,24.1401403 13.5506101,23.9905499 C13.4498351,23.8422833 12.920146,23.9011928 12.617821,23.9011928 C12.3149997,23.9011928 12.0626486,23.9905499 12.0876355,23.6931892 C12.0876355,23.6931892 12.6931127,23.4843583 12.8446888,23.4843583 C12.9956031,23.4843583 13.3737161,23.4843583 13.5759279,23.6931892 C13.7773124,23.9011928 14.1557563,24.1401403 14.3319884,24.1101891 C14.508717,24.079907 14.8117038,24.4082117 14.7865514,24.5266926 C14.7607371,24.6458354 14.3573063,24.6162152 14.2313789,24.4974033 M29.2326191,6.65063531 C29.2933489,6.72973291 29.3400131,7.02792092 29.0327239,7.10817686 C28.7254347,7.18661255 28.6180407,6.92880071 28.6327681,6.72973291 C28.6478264,6.53099605 28.0866968,6.2961854 28.0253051,6.2961854 C27.9645754,6.2961854 28.0024694,6.90894357 28.2333087,6.90894357 C28.4636515,6.90894357 28.6180407,7.18661255 28.7254347,7.30608633 C28.8326633,7.42473273 28.4945955,7.42473273 28.3565884,7.40520654 C28.2187468,7.38584583 27.7875159,7.6837029 27.3877256,7.7628005 C26.9885971,7.84239452 26.5441282,7.74526003 26.3748461,7.76594454 C26.2053985,7.78513978 25.9431188,8.3788682 25.8813962,8.47782293 C25.8196736,8.57743957 25.2668178,8.47782293 25.0670881,8.47782293 C24.8666964,8.47782293 24.6979108,8.73629667 24.3749013,8.79537166 C24.0525538,8.85510855 24.2216704,9.09372515 24.2370597,9.29246201 C24.2516216,9.49070243 24.1442276,9.58982264 23.9443324,9.53041671 C23.7447682,9.4715072 23.7603229,9.61034169 23.7447682,9.7892214 C23.7298753,9.96777017 23.7755467,10.2060558 23.5912063,10.3847701 C23.4067004,10.5634843 23.329754,10.6227248 23.1152969,10.6035295 C22.899516,10.5833414 22.9150708,10.1473118 22.8384553,10.166507 C22.7610125,10.1865296 22.3921661,10.4640331 22.3307745,10.3053415 C22.2687209,10.1461535 21.7923151,9.7892214 21.6235294,9.70896547 C21.4542473,9.62953692 21.3322914,9.29246201 21.2545176,9.15329657 C21.1782331,9.01396565 21.4855223,8.99427399 21.3928557,8.9747478 C21.3010164,8.95489067 20.9781724,8.85510855 20.9167808,8.75615381 C20.8552237,8.65653717 20.6558249,8.18046229 20.6399392,8.0409659 C20.6248809,7.90213141 20.8861677,7.66384576 20.8861677,7.58375531 C20.8861677,7.50498866 20.6399392,7.50498866 20.5325452,7.50498866 C20.4244893,7.50498866 20.3020369,7.20696612 20.4555988,6.90894357 C20.6093261,6.61092103 20.8399999,6.69034958 20.8399999,6.69034958 L21.0703427,6.69034958 C21.192795,6.69034958 21.1630093,7.02792092 21.1016177,7.18661255 C21.039895,7.3458006 21.1939533,7.32561251 21.2856271,7.40520654 C21.3779628,7.48446962 21.4234688,7.2660411 21.4395199,7.12753757 C21.4542473,6.98837213 21.2088462,6.65063531 21.1016177,6.51146987 C20.9938927,6.37313181 20.6708832,6.31289849 20.6093261,6.41284608 C20.5476035,6.51146987 20.2863167,6.92880071 20.2095357,6.82918407 C20.1329203,6.72973291 20.1173655,5.83599623 19.9793584,5.57785344 C19.840193,5.32020708 19.3492252,5.24044758 19.1493301,5.12080832 C18.9494349,5.00199645 18.226966,4.88268814 18.1041827,4.86316196 C17.980903,4.8434703 17.519721,4.98247026 17.335546,4.90237981 C17.1507091,4.82328221 17.1507091,4.42597398 17.1507091,4.42597398 C17.1507091,4.42597398 17.0431497,4.8434703 16.9665342,4.96195122 C16.8895878,5.08159047 16.7208021,5.14116189 16.5975224,5.08159047 C16.4744081,5.02201906 16.2900677,4.58450013 16.0598904,4.52525967 C15.8292166,4.46618468 15.7218226,4.56497394 15.5366548,4.40578589 C15.2601442,4.16799666 16.0133916,4.18735737 16.0598904,4.18735737 C16.1053963,4.18735737 16.690189,4.04852288 16.7050819,3.84962055 C16.7208021,3.65138013 16.9049771,3.4524778 17.1664294,3.51204921 C17.4277162,3.5717861 17.5352757,3.29328975 17.5044972,3.05533505 C17.4737186,2.81688392 17.9656792,2.55907208 18.0735696,2.67854586 C18.1807982,2.7968613 18.5959778,2.65802681 18.4573088,2.41974116 C18.3189707,2.18162098 18.9952718,1.94366628 19.6105121,1.90312463 C20.2254214,1.86407226 20.3791488,1.94366628 20.5325452,2.04245554 C20.686107,2.14157576 21.2088462,2.18162098 21.3928557,1.90312463 C21.577858,1.62495922 21.3779628,1.22781647 21.5935782,1.06912484 C21.8082008,0.910433217 21.8393103,1.30757597 22.0084269,1.46659855 C22.1775436,1.62495922 22.3464947,1.02891414 22.5303387,0.790959439 C22.5639304,0.747770164 22.9781172,0.722783266 23.3004647,0.488469041 C23.6666634,0.222217919 24.2244835,0.254651244 24.6922846,0.240420295 C25.0579869,0.229498869 25.2941213,0.098110808 25.66032,0.11995366 C26.1261354,0.147919129 26.7160579,0.336561937 27.1054232,0.387363114 C27.2119899,0.401594063 27.4552398,0.543076169 27.1530804,0.602151154 C26.8507555,0.661557091 26.2360116,0.808996339 25.8706402,0.873532037 C25.3947308,0.957262967 24.7804834,0.858473707 24.8671929,0.873532037 C24.9782274,0.892396317 25.5837046,1.15864744 26.3364556,0.963716537 C26.4236615,0.941211781 26.7329364,0.728409455 27.0776233,0.820910622 C27.253028,0.867740371 27.4520958,0.649973761 27.7595505,0.572034495 C27.9930373,0.512959511 28.3714813,0.592553538 28.3714813,0.592553538 L28.6946562,0.532982124 C29.0171692,0.473079759 28.8313395,1.24883194 29.1359811,1.64216874 C29.3453084,1.91321867 29.4015703,2.4395983 29.7707476,2.53871851 C30.1390975,2.63783872 30.3232724,2.34047809 30.6466128,2.02226745 C30.9687949,1.70455325 31.4612519,1.88326749 31.7061566,1.98271866 C31.9532125,2.08183887 31.7061566,2.53871851 31.3535269,2.65802681 C30.9995734,2.77716964 30.3542165,3.55242539 30.2311022,3.67074084 C30.1086499,3.79021462 29.9087547,4.00880861 30.0158177,4.30683115 C30.1238737,4.60501917 30.2617153,4.46618468 30.3699367,4.52525967 C30.4773307,4.58450013 30.2777665,4.70397391 30.1850998,4.88268814 C30.0929296,5.06107143 30.0778713,5.39880825 30.0929296,5.71718436 C30.1086499,6.03456761 29.5013524,5.57818439 29.1785084,5.61806415 C28.855499,5.6579439 29.0017799,6.0943045 29.063337,6.23380089 C29.1248942,6.371808 29.170731,6.57104128 29.2326191,6.65063531 M32.2985612,9.07436444 C32.2985612,9.07436444 31.8441637,9.09372515 31.7769804,9.21286798 C31.7096316,9.33234176 31.4748209,9.39158222 31.1882162,9.49070243 C30.9031008,9.5908155 30.7685687,9.45148459 30.7184295,9.29246201 C30.6674628,9.13310848 30.264032,9.15329657 30.1462129,9.17331918 C30.0288903,9.19251441 29.9277844,9.03382279 29.7930868,8.75615381 C29.6590512,8.47782293 29.7930868,8.47170031 29.8604356,8.33849202 C29.9105749,8.23970275 30.4660783,8.31880035 30.600445,8.47782293 C30.7351425,8.63668003 30.9534056,8.47782293 31.2896531,8.47782293 C31.6254042,8.47782293 31.7769804,8.31880035 31.9280601,8.33849202 C32.0804636,8.35851463 32.3990052,8.45813127 32.5333718,8.59746219 C32.6685659,8.73629667 32.2985612,9.07436444 32.2985612,9.07436444 M8.19629836,4.00880861 C8.19629836,4.06871097 8.55455422,4.14648476 8.7676875,4.20721451 C9.18816239,4.32668829 9.15440526,4.32668829 9.35645163,4.36607161 C9.55800158,4.40644779 9.89408364,4.72383104 10.0453288,4.82328221 C10.1967395,4.92289885 10.3483157,5.10111666 10.5495347,5.08159047 C10.7517465,5.06107143 11.070619,5.06107143 11.3231356,5.08159047 C11.5748249,5.10111666 12.4324877,5.10111666 12.5843948,5.08159047 C12.7353091,5.06107143 13.3574994,5.22042496 13.3239078,5.30018447 C13.2901506,5.37977849 13.2398459,5.4990868 12.920146,5.51861298 C12.600446,5.53863559 12.0297188,5.47873323 11.6423391,5.43901895 C11.2564488,5.39880825 10.8862786,5.4990868 10.8862786,5.4990868 L10.3483157,5.43901895 C10.3483157,5.43901895 9.89408364,5.27966542 9.75955153,5.08159047 C9.62485395,4.88268814 9.20487548,4.86316196 8.98661244,4.76420722 C8.7676875,4.66392868 8.46536258,4.48537991 8.28036024,4.38659065 C8.09502696,4.28730497 8.19629836,3.94956815 8.19629836,4.00880861 M8.63298992,5.22042496 C8.71721727,4.98247026 9.13769217,5.06107143 9.22191953,5.30018447 C9.30598141,5.53863559 8.55984946,5.42925586 8.63298992,5.22042496 M8.68362562,6.05508665 C8.63298992,5.91542478 9.15440526,5.6579439 9.30598141,5.59820701 C9.45755756,5.53863559 9.59126229,5.71718436 9.75955153,5.73687602 C9.92784077,5.75640221 9.89408364,6.05508665 9.74267296,6.07494379 C9.59126229,6.0943045 9.27172785,6.13401877 9.05412671,6.17389853 C8.83503629,6.21311637 8.7031518,6.10936283 8.68362562,6.05508665 M8.12894957,5.81597362 C8.26315073,5.91542478 8.36425665,6.35261277 8.28036024,6.37313181 C8.19629836,6.39232704 8.21301145,6.55168057 7.91035558,6.73022933 C7.60736875,6.90894357 7.48971521,6.37313181 7.45612355,6.25365803 C7.42302832,6.13401877 7.10349388,6.29320683 6.91898798,6.27285326 C6.73332374,6.25365803 6.66729876,5.96407477 6.78412492,5.87604146 C6.9687963,5.73687602 7.3219224,5.89639503 7.43974141,5.83649266 C7.55722948,5.77675577 7.99425198,5.71718436 8.12894957,5.81597362 M6.56751664,5.1611845 C6.69592613,5.02251549 6.825163,4.88467386 6.95622011,4.74848699 C7.20939862,4.75278937 7.45728189,4.76040127 7.59082114,4.74368818 C7.91035558,4.70397391 8.04488769,4.90237981 8.02800912,5.00199645 C8.01113055,5.10210952 7.82596274,5.39880825 7.59082114,5.37977849 C7.35567953,5.35925945 7.35567953,5.45837966 7.2712867,5.24044758 C7.18788672,5.02350835 6.67309042,5.15952974 6.56751664,5.1611845 M6.18890721,5.57768797 C6.28140838,5.4740999 6.37407502,5.37051183 6.46806547,5.26791662 C6.40965239,5.38275706 6.35074289,5.55220464 6.26287505,5.57785344 C6.23524053,5.58612725 6.21041911,5.58496892 6.18890721,5.57768797 M7.52363782,4.44632754 C7.44354737,4.44632754 7.37570214,4.43226207 7.28435931,4.41223946 C7.37520572,4.3210621 7.46704498,4.2308776 7.55888424,4.1406931 C7.6209378,4.29276568 7.62722589,4.44632754 7.52363782,4.44632754 M13.391422,10.0668904 C13.2228018,10.1461535 12.9722709,9.91878923 13.2398459,9.82860473 C13.4749875,9.7490107 13.5588839,9.9876273 13.391422,10.0668904 M12.6340377,9.7490107 C12.5668544,9.868319 12.1956914,9.73908213 12.2641985,9.64989049 C12.4324877,9.43113102 12.7017174,9.63052978 12.6340377,9.7490107 M10.5748525,14.3974012 C10.9026608,14.2483072 11.2564488,13.8313073 11.407363,14.0100215 C11.5587737,14.1889012 11.8354498,14.3974012 12.0121783,14.4268559 C12.1885759,14.4571381 11.9622045,14.8145665 11.8864165,14.8445177 C11.8107939,14.873476 11.5331249,14.7844499 11.3062571,14.7844499 C11.0795548,14.7844499 11.130025,14.6055702 11.0289191,14.6360178 C10.9279786,14.6658035 10.7007799,14.7250439 10.5495347,14.8145665 C10.398124,14.9037582 10.1464348,14.8853903 10.1464348,14.7250439 C10.1464348,14.4870892 10.2468788,14.5464952 10.5748525,14.3974012 M12.5423639,15.2017807 C12.617821,15.1716641 12.9702852,15.1716641 13.1470138,15.2017807 C13.3239078,15.2312355 13.5759279,15.7677091 13.4498351,15.7973294 C13.3239078,15.827446 13.1216959,15.6785175 13.1216959,15.4698521 C13.1216959,15.2608557 12.9452983,15.8570663 13.0460733,16.0357805 C13.1470138,16.2144947 12.8446888,16.4231602 12.7435829,16.4231602 C12.642477,16.4231602 12.5668544,16.1550888 12.5920068,15.8871829 C12.617821,15.6187806 12.4410925,15.380495 12.16392,15.4099497 C11.8864165,15.4400664 11.7596617,15.7079723 11.6598796,15.7973294 C11.5587737,15.8871829 11.5587737,16.3930435 11.5835951,16.5123518 C11.6087475,16.6319911 11.6087475,17.0516386 11.3568928,17.0190398 C11.130025,16.9890886 11.1806607,16.4822352 11.2051512,16.3035209 C11.2308,16.1251376 11.130025,15.6785175 11.2308,15.4400664 C11.3317404,15.2017807 11.6342308,15.1124236 11.8354498,15.0821415 C12.0376617,15.0523558 12.4665758,15.2312355 12.5423639,15.2017807 M13.9040671,15.8871829 C13.9793588,15.9465889 14.508717,15.7973294 14.6098229,15.9465889 C14.7105979,16.0958483 14.508717,16.1251376 14.2562004,16.2442805 C14.0045111,16.3640852 13.9285576,16.3334721 13.82861,16.4822352 C13.7273386,16.6319911 13.3993649,16.6910661 13.2481197,16.8697803 C13.0965435,17.0488255 12.8264865,17.1547302 12.7689008,17.0190398 C12.6931127,16.8403255 12.7943841,16.9295172 12.819371,16.8403255 C12.8446888,16.7508029 13.2982589,16.5426339 13.2982589,16.5426339 C13.2982589,16.5426339 13.82861,15.827446 13.9040671,15.8871829 M26.3606151,33.3166201 C26.184714,33.2270975 25.8056081,33.1979737 25.6545284,32.9586952 C25.5031177,32.720575 25.0745345,32.4826203 24.9232893,32.5418608 C24.7722096,32.6011012 24.5195275,32.6611691 24.3183085,32.5117441 C24.1160966,32.363312 23.7894467,32.1842668 23.662692,32.0652895 C23.5361027,31.9464776 23.2091219,31.856955 23.0577112,31.856955 C22.9054731,31.856955 22.9311219,31.7379776 22.7045851,32.0954061 C22.4775518,32.4523382 22.7045851,32.5719774 22.3009888,32.5117441 C21.897227,32.4523382 22.351128,32.422387 22.5786577,32.0652895 C22.8055255,31.7076955 22.5530089,31.4988646 22.3009888,31.5885527 C22.0484722,31.6780753 22.2253662,31.856955 21.8217698,31.9464776 C21.418339,32.0360002 21.418339,31.7379776 21.6701937,31.6780753 C21.9228758,31.6185039 22.3764459,31.3499361 22.3764459,31.2307933 C22.3764459,31.1118159 22.3263066,30.7845041 22.1240948,30.7845041 C21.9228758,30.7845041 21.9728496,30.4861506 21.6701937,30.0986054 C21.3681997,29.7115567 20.9358106,29.2718866 20.6328237,29.3324509 C20.3308298,29.3915259 20.1579072,29.6814401 20.0064965,29.3544592 C19.8552513,29.0259891 19.6785228,28.9669141 19.5774169,28.7881998 C19.4761455,28.6094856 19.2241253,28.7881998 19.1485027,28.6986772 L19.0727146,28.6094856 C19.0727146,28.6094856 18.7455683,28.6986772 18.9216349,28.4304404 C19.0983634,28.1620381 19.1738205,27.6548537 19.0983634,27.6853013 C19.0229063,27.715087 18.8964825,28.1322524 18.7705552,28.1024667 C18.6449588,28.072681 18.7455683,28.0124477 18.4935481,27.8338989 C18.2407005,27.6548537 17.8377661,27.8044441 17.8377661,27.9535381 C17.8377661,28.1024667 17.7111769,28.2216095 17.7111769,28.2216095 C17.7111769,28.2216095 17.6355543,28.1322524 17.5599317,27.9535381 C17.4844745,27.774493 17.1316794,27.7452037 16.9547854,27.9239179 C16.7787188,28.1024667 16.6772819,27.4761395 16.551851,27.4761395 C16.4249308,27.4761395 16.1732415,27.6257299 16.0469832,27.8938013 C15.9215523,28.1620381 15.9715261,28.5489213 15.8705857,28.519632 C15.7696452,28.4898463 15.7446583,27.9829929 15.7696452,27.8044441 C15.7951285,27.6257299 16.072632,27.3278728 15.8705857,27.2687978 C15.6692012,27.2085645 15.3662144,27.5666549 15.2399561,27.5957787 C15.1145251,27.6257299 14.8618431,27.8338989 14.7105979,28.072681 C14.5591872,28.3111321 14.4833991,28.4603916 14.3319884,28.5489213 C14.1807432,28.6391058 13.9540409,28.5489213 14.0045111,28.4603916 C14.0551468,28.370538 13.5759279,28.0430607 13.4999744,28.1620381 C13.4245173,28.2816773 13.197153,28.370538 12.9702852,28.4898463 C12.7435829,28.6094856 12.5423639,28.3410833 12.4913973,28.2216095 C12.4410925,28.1024667 12.3401521,28.072681 12.3149997,27.6853013 C12.2896818,27.2974252 12.3654699,26.8810872 12.4410925,26.6431325 C12.5167151,26.4040195 12.0626486,25.9279446 11.8864165,25.956572 C11.7098534,25.9870196 11.5331249,26.196016 11.3568928,26.1654029 C11.1806607,26.1359481 11.2564488,26.0760458 10.9784488,26.0760458 C10.7007799,26.0760458 10.9279786,26.0169708 10.9784488,25.7488994 C11.0289191,25.4808281 10.8776739,25.1233996 11.1551774,24.8841211 C11.4323499,24.6458354 11.3317404,24.079907 11.1551774,24.0506177 C10.9784488,24.020832 10.6504751,24.1401403 10.4236073,24.1101891 C10.1967395,24.079907 10.0201765,24.3188546 10.0956336,24.586595 C10.1714217,24.8548318 9.96987171,25.033877 9.89408364,25.0040913 C9.81796461,24.9741401 9.71768606,24.8252116 9.44018256,25.0634972 C9.16350645,25.3021138 9.06206957,25.2129222 8.78473154,24.9441889 C8.50739352,24.6761176 8.20424122,24.4082117 8.15393647,23.9905499 C8.10379719,23.57355 8.07847934,23.1563846 8.17958527,22.9179335 C8.28036024,22.6801443 8.28036024,22.2629789 8.12894957,22.2030765 C7.97770437,22.1438361 8.30518167,21.8461445 8.48207567,21.7860766 C8.65863872,21.7261743 8.93564579,21.4585993 8.98661244,21.3387946 C9.03642076,21.2194863 9.28877189,21.2497684 9.56627539,21.2497684 C9.84328246,21.2497684 9.89408364,21.2497684 10.1714217,21.4284827 C10.4490906,21.6070314 10.4990644,21.3387946 10.4990644,21.2497684 C10.4990644,21.1604113 10.654943,21.0960411 10.9575988,21.1259923 C11.2600892,21.1552816 11.6342308,20.89234 11.7098534,20.9816971 C11.7853105,21.0712197 11.9363903,21.4284827 12.0876355,21.308678 C12.2393771,21.190528 12.2896818,20.9816971 12.3401521,21.3387946 C12.3906223,21.696885 12.5167151,22.2331932 12.7435829,22.3228813 C12.9702852,22.4120729 12.8446888,22.7695014 13.0712257,22.7994526 C13.2982589,22.8284109 13.3993649,22.2331932 13.3239078,22.0245278 C13.2481197,21.8156969 13.0965435,21.190528 12.9702852,21.0407721 C12.8446888,20.89234 13.0564983,20.5218389 13.3086839,20.4028615 C13.5602077,20.2833877 13.9540409,19.6709605 14.1307694,19.4922463 C14.3078289,19.313532 14.8838514,19.2622344 14.7329372,19.0237833 C14.5806991,18.7853322 14.4330944,18.5382763 14.4330944,18.3597275 C14.4330944,18.1805169 14.5841741,18.2405847 14.6601276,18.3597275 C14.7354193,18.4785394 15.0384061,18.1805169 14.9631145,18.0320848 C14.8873264,17.8834872 14.9123133,17.6748217 15.0890418,17.7047729 C15.2657703,17.7338967 15.3155787,17.555348 15.2399561,17.4363706 C15.1643335,17.3167314 15.4168501,17.1679683 15.5932476,17.2273742 C15.7696452,17.2872766 16.3526177,17.3347683 16.4280748,17.2152945 C16.5036974,17.0961517 16.1482546,16.8403255 16.1482546,16.6017089 C16.1482546,16.3640852 16.450745,16.1550888 16.6273081,16.1251376 C16.8037057,16.0958483 17.0307389,16.1251376 17.0555604,16.0357805 C17.0808782,15.9465889 17.3333948,15.7079723 17.3585472,15.9168032 C17.3835341,16.1251376 17.3585472,16.4822352 17.5599317,16.4822352 C17.7624745,16.4822352 18.0138327,16.2144947 18.0894553,16.1852055 C18.1654089,16.1550888 18.6449588,16.0357805 18.7455683,16.0063258 C18.8461778,15.9767055 19.451655,15.9168032 19.3757014,15.7079723 C19.3000788,15.4994723 19.2241253,15.2913033 19.1485027,15.2017807 C19.0727146,15.1124236 18.997092,15.2312355 18.8964825,15.380495 C18.796204,15.5294235 18.61931,15.5294235 18.5693362,15.4099497 C18.5183695,15.2913033 18.5938266,14.9338748 18.4172636,15.0523558 C18.2407005,15.1716641 18.2158791,15.2913033 18.1146077,15.2312355 C18.0138327,15.1716641 17.9132232,14.9629986 17.9132232,14.9629986 C17.9132232,14.9629986 18.1654089,14.8145665 17.9890113,14.5464952 C17.8124483,14.2784238 17.5599317,14.3374988 17.3075805,14.4870892 C17.0555604,14.6360178 17.0808782,14.6055702 16.7787188,14.6949273 C16.4763938,14.7844499 16.3246522,14.873476 16.3246522,14.873476 C16.3246522,14.873476 16.4098724,14.4106393 16.5864355,14.2312631 C16.7629985,14.0527144 17.3075805,14.1294953 17.4593222,13.9501191 C17.6105674,13.7715704 18.0138327,14.0394763 18.0138327,14.0394763 C18.0138327,14.0394763 18.2158791,13.8011906 18.2158791,13.9501191 C18.2158791,14.0992131 18.1654089,14.4870892 18.3171505,14.4870892 C18.4682302,14.4870892 18.8964825,14.2483072 18.7202504,14.1889012 C18.5436874,14.1294953 18.8291337,14.0186263 19.0053658,13.8695323 C19.1822598,13.7204382 19.5269466,13.8905477 19.6280526,13.8313073 C19.7286621,13.7715704 19.8039537,13.5036645 19.9808477,13.5036645 C20.1579072,13.5036645 20.2330334,13.7715704 19.9808477,13.9501191 C19.7286621,14.1294953 19.7036752,14.5764464 19.5774169,14.6949273 C19.451655,14.8145665 19.5269466,14.9629986 19.7286621,14.9338748 C19.9307084,14.9037582 20.1072715,14.9629986 20.2833381,14.9037582 C20.4600666,14.8445177 20.5611726,14.9629986 20.6113118,15.0523558 C20.661782,15.1415474 20.8131927,14.9629986 20.8131927,14.9629986 C20.8131927,14.9629986 21.1414974,14.873476 21.241445,15.0230665 C21.3427164,15.1716641 21.418339,14.9338748 21.3427164,14.7844499 C21.2670938,14.6360178 21.1656569,14.4870892 21.0901998,14.3078786 C21.0147427,14.1294953 20.9141332,14.0694274 20.7124178,14.1294953 C20.5102059,14.1889012 20.4600666,14.0694274 20.3339738,13.9797394 C20.2077155,13.8905477 20.1072715,14.0992131 20.2077155,13.8905477 C20.3089869,13.6823787 20.3589607,13.6223109 20.4347488,13.4434312 C20.5102059,13.2647169 20.8385106,12.9377361 20.5102059,12.8482135 C20.1827286,12.7590218 20.0819536,12.698954 20.0311525,12.5204052 C19.9808477,12.3411946 19.6024038,12.0133863 19.5016288,12.0133863 C19.4008538,12.0133863 18.9178289,12.1191256 18.8925111,11.9706935 C18.8668623,11.8207721 18.7455683,11.3878865 18.61931,11.2392889 C18.4935481,11.0898639 18.0138327,10.4345784 17.9380447,10.374676 C17.8625875,10.3149391 17.7624745,10.3452213 17.5351102,10.7024843 C17.3075805,11.0602437 17.1063615,11.1201461 16.9297985,11.0306235 C16.7532354,10.9414318 16.5594629,11.0332711 16.3830653,10.7949854 C16.2061713,10.5568653 16.7279176,10.4640331 16.652295,10.3149391 C16.5763414,10.166507 16.1732415,10.1061082 15.9215523,10.0771499 C15.6692012,10.0470332 15.4926381,9.71972142 15.1145251,9.68960476 C14.7354193,9.6594881 14.2816837,9.7490107 14.1557563,9.7490107 C14.029498,9.7490107 14.029498,9.95767612 13.9793588,10.2853189 C13.9285576,10.6127962 14.1557563,10.7024843 13.9285576,10.7622212 C13.7016898,10.8217926 13.6010803,10.8512473 13.82861,10.9708866 C14.0551468,11.0898639 14.3573063,11.5664352 14.3573063,11.5664352 C14.3573063,11.5664352 14.3573063,11.8345066 14.1807432,11.9836006 C14.0045111,12.1326946 13.82861,12.2816231 13.7273386,12.1030744 C13.6262327,11.9236982 13.3487292,11.9539804 13.4245173,12.1326946 C13.4999744,12.3117398 13.651716,12.4009314 13.651716,12.5798112 C13.651716,12.7590218 13.8782528,13.2056419 13.7273386,13.3540741 C13.5759279,13.5036645 13.3993649,13.3841907 13.2729411,13.4141419 C13.1470138,13.4434312 13.0212519,13.1755253 13.1216959,13.1162848 C13.2228018,13.0568789 13.0965435,12.6094314 13.0965435,12.6094314 C13.0965435,12.6094314 12.7943841,13.1162848 12.819371,12.8482135 C12.8446888,12.5798112 12.6931127,12.5503564 12.6931127,12.3411946 C12.6931127,12.1326946 12.4735258,11.8429459 12.2458306,11.9026828 C12.0191283,11.9625851 11.8107939,12.0133863 11.3818797,11.9236982 C10.9532965,11.8345066 10.7765679,11.7754316 10.4236073,11.5664352 C10.0709776,11.3577698 9.94438839,11.5073602 9.76799081,11.536484 C9.59126229,11.5664352 9.66688489,11.1201461 9.44018256,11.0602437 C9.21314929,11.0003413 9.35843735,10.9338199 9.30713974,10.5464403 C9.2574969,10.1590606 9.11187789,10.2558641 9.66688489,9.83803687 C10.2218919,9.42186435 10.1464348,9.24248821 10.5748525,9.18341323 C11.0037667,9.12384181 11.160969,9.45198101 11.160969,9.302887 C11.160969,9.15395847 11.3062571,8.34891701 11.3062571,8.64677408 C11.3062571,8.94446567 11.8107939,8.9747478 11.5835951,9.18341323 C11.3568928,9.39158222 11.4829856,9.42186435 11.6598796,9.42186435 C11.8354498,9.42186435 12.16392,9.21286798 12.16392,9.21286798 C12.16392,9.21286798 12.5668544,9.00420256 12.6677948,9.18341323 C12.7689008,9.36196199 12.7689008,9.54117266 12.9452983,9.54117266 C13.1216959,9.54117266 13.4999744,9.30239058 13.1723316,9.09372515 C12.8446888,8.88472878 12.642477,8.91484544 12.4410925,8.67655979 C12.2393771,8.43827413 12.2896818,8.52746578 12.0626486,8.58687171 C11.8354498,8.64677408 11.8354498,8.49734912 11.7596617,8.49734912 C11.6840391,8.49734912 11.5587737,8.55741696 11.507807,8.43827413 C11.4575023,8.31880035 11.5331249,8.28967655 11.7853105,8.28967655 C12.0376617,8.28967655 12.3401521,8.3788682 12.3401521,8.3788682 C12.3401521,8.3788682 12.642477,8.25955989 12.718596,8.22944323 C12.7943841,8.20048491 13.197153,8.13992064 13.1216959,7.87218023 C13.0460733,7.60410887 12.7943841,7.60410887 12.718596,7.51491723 C12.642477,7.42473273 12.8696757,7.30608633 12.9956031,7.24651492 C13.1216959,7.18661255 13.4749875,7.24651492 13.4749875,7.24651492 C13.4749875,7.24651492 13.7016898,7.27613515 13.7016898,7.15699232 C13.7016898,7.03818045 13.651716,6.88825906 13.8027957,6.97778165 C13.9540409,7.06713877 13.8027957,7.33570656 14.029498,7.27613515 C14.2562004,7.21672921 14.3078289,7.27613515 14.4330944,7.36582322 C14.5591872,7.45501486 14.407611,7.81277429 14.2816837,7.87218023 C14.1557563,7.93175164 13.9540409,8.05072899 14.2313789,8.08101113 C14.508717,8.11112779 14.7105979,8.11112779 14.7105979,8.11112779 C14.7105979,8.11112779 14.8873264,7.90213141 14.9631145,7.7232517 C15.0384061,7.54420651 15.1643335,7.66384576 15.2657703,7.7232517 C15.3662144,7.78265763 15.7446583,7.87218023 15.3915322,7.99165401 C15.0384061,8.11112779 14.9631145,8.25955989 14.8873264,8.40815747 C14.8117038,8.55741696 14.7865514,8.64677408 14.4585777,8.55741696 C14.1307694,8.46822532 13.9540409,8.49734912 13.8782528,8.64677408 C13.8027957,8.79537166 13.852604,9.27260487 13.9793588,9.21286798 C14.1052861,9.15329657 14.2313789,9.15329657 14.3829551,9.09372515 C14.5342003,9.03382279 15.1390156,9.15329657 15.2905918,9.12384181 C15.4420024,9.09372515 15.6938571,9.42186435 15.7696452,9.36196199 C15.8457642,9.30239058 15.9971749,9.48093934 16.1482546,9.60041312 C16.2996653,9.71972142 16.2486987,9.33234176 16.5262022,9.57013098 C16.8037057,9.80924402 16.652295,9.80924402 16.8037057,9.80924402 C16.9547854,9.80924402 17.2830901,9.83803687 17.2830901,9.83803687 C17.2830901,9.83803687 17.3075805,9.54117266 17.5599317,9.60041312 C17.8124483,9.6594881 18.0391506,9.9876273 18.0138327,9.7490107 C17.9890113,9.511056 18.0391506,9.33234176 17.8377661,9.15329657 C17.6355543,8.9747478 17.3075805,8.85510855 17.2577722,8.7659169 C17.2076329,8.67655979 17.1566663,8.55741696 17.2321234,8.49734912 C17.3075805,8.43827413 17.6608721,8.52746578 17.8625875,8.67655979 C18.0646339,8.82548832 18.2407005,8.9747478 18.3926076,8.85510855 C18.5436874,8.73629667 18.7202504,8.67655979 18.796204,8.58687171 C18.8716611,8.49734912 19.0483896,8.22944323 19.0483896,8.22944323 C19.0483896,8.22944323 18.2913362,8.11112779 18.1905613,7.96153735 C18.0894553,7.81277429 17.7366602,7.60410887 17.6355543,7.60410887 C17.5351102,7.60410887 17.2577722,7.81277429 17.1566663,7.51491723 C17.0555604,7.21672921 17.0555604,6.85946621 16.9547854,6.82918407 C16.8540104,6.79923289 15.7951285,6.62068413 15.6433869,6.53099605 C15.4926381,6.44180441 14.8873264,6.23380089 14.6601276,6.08437593 C14.4330944,5.93561287 14.1052861,5.7266165 13.9040671,5.7266165 C13.7016898,5.7266165 12.8696757,5.84609028 12.718596,5.81597362 C12.5668544,5.78651886 12.1131188,5.87604146 11.9363903,5.90549621 C11.7596617,5.93561287 12.16392,6.32299254 11.7853105,6.41284608 C11.407363,6.5022032 11.4575023,6.56111271 11.5331249,6.11416164 C11.6087475,5.66721056 11.2809392,5.54806774 10.9532965,5.7266165 C10.6254882,5.90549621 10.0956336,6.02496999 10.2218919,6.23380089 C10.3483157,6.44180441 10.1967395,6.59139485 10.4490906,6.79923289 C10.7007799,7.00806379 10.8022167,7.06713877 11.130025,7.03818045 C11.4575023,7.00806379 11.7853105,7.09742091 11.7853105,7.09742091 C11.7853105,7.09742091 11.7853105,7.45501486 11.6598796,7.51491723 C11.5331249,7.57448864 11.3317404,7.57448864 11.2809392,7.75320288 C11.2308,7.93175164 10.9784488,8.02177067 10.9784488,7.93175164 C10.9784488,7.84239452 11.1048726,7.54420651 10.9279786,7.3951125 C10.7517465,7.24651492 10.7007799,7.21672921 10.4990644,7.36582322 C10.2975145,7.51491723 10.2725276,7.57448864 10.1714217,7.33570656 C10.0709776,7.09742091 9.76799081,6.88825906 9.76799081,6.88825906 C9.76799081,6.88825906 9.56627539,6.59139485 9.41469924,6.44180441 C9.26395047,6.29320683 8.98661244,6.32299254 8.96096364,6.47192107 C8.93564579,6.62068413 9.01209577,6.77010909 9.11187789,7.03818045 C9.21314929,7.30608633 9.25766237,7.64597434 9.0812648,7.67559457 C8.9043708,7.7052148 8.93564579,7.90213141 8.75908274,7.96153735 C8.58318159,8.02177067 8.50739352,7.87218023 8.50739352,7.63389458 C8.50739352,7.3951125 8.43160544,7.18661255 8.48207567,7.09742091 C8.53221494,7.00806379 8.28036024,7.15699232 8.02800912,7.09742091 C7.77598895,7.03818045 7.57427352,7.21672921 7.82596274,7.30608633 C8.07847934,7.3951125 8.12894957,7.75320288 7.90158534,7.84239452 C7.6750485,7.93175164 6.81804753,7.84239452 6.53971665,7.84239452 C6.26287505,7.84239452 5.85927873,7.93175164 5.7838216,7.75320288 C5.708199,7.57448864 6.01052393,7.45501486 6.18725245,7.45501486 C6.36398098,7.45501486 6.89333917,7.48446962 7.09472365,7.15699232 C7.2969355,6.82918407 6.84286895,6.77010909 6.64115352,6.77010909 C6.43976905,6.77010909 6.28786195,6.68075197 6.06149058,6.41284608 C5.83412635,6.1442783 6.21223935,5.96490215 6.1619346,5.84609028 C6.1404227,5.7952891 6.08267153,5.78238196 6.00589059,5.7842022 C3.76931498,8.33948487 1.96430116,11.2819817 0.705358628,14.4985071 C0.762282422,14.6439606 0.745238379,14.8784403 0.639333645,14.9037582 C0.611368176,14.9103772 0.585884849,14.8979665 0.562883664,14.8733106 C0.435632507,15.2118748 0.313842062,15.5529211 0.198670663,15.897277 C0.176496859,16.2345174 0.128674253,16.771322 0.110140924,17.0190398 C0.0846575972,17.347179 0.311690872,17.9124455 0.564041997,18.210799 C0.815896694,18.5088215 0.768901468,19.1755249 0.920146667,19.2949987 C1.07155734,19.414638 1.44669177,19.6410093 1.67355957,19.6105617 C1.90026189,19.5817689 2.05117614,19.7894414 2.25371894,20.2069378 C2.45460699,20.6244341 2.65698431,21.308678 2.80822951,21.3692422 C2.95964019,21.4284827 3.21149489,21.6373136 3.08507111,21.7860766 C2.95964019,21.9351706 2.75792476,22.2629789 2.98495804,22.2629789 C3.21149489,22.2629789 3.28728296,22.1138849 3.46351506,22.3819562 C3.64024358,22.6498621 3.86760781,22.7994526 3.84195901,22.9780013 C3.81680663,23.1563846 4.04367443,23.2156251 4.14428393,23.2459072 C4.24572081,23.275362 4.47258861,23.8124975 4.69912545,23.57355 C4.92648968,23.3352643 4.39663506,22.9780013 4.24572081,22.8284109 C4.09431013,22.6801443 4.24572081,22.3528324 3.89242923,22.0245278 C3.53963409,21.696885 3.58977336,21.4585993 3.33742223,21.2194863 C3.08507111,20.9816971 2.88368664,20.7728662 3.13620324,20.5648627 C3.38789246,20.3561972 3.41337579,20.7728662 3.51398528,21.0407721 C3.61525669,21.308678 4.14428393,21.8461445 4.37098625,22.0842647 C4.59835048,22.3228813 5.00211228,23.1563846 5.12820511,23.1563846 C5.2538015,23.1563846 5.60709308,23.6331214 5.60709308,23.6331214 C5.60709308,23.6331214 5.8088085,24.020832 5.73302043,24.1401403 C5.65723235,24.2584558 5.83412635,24.7057378 6.01052393,24.8252116 C6.18725245,24.9441889 6.95622011,24.9468365 6.9944451,25.3914709 C7.00453915,25.5071388 7.13096292,26.0770386 7.40830095,26.0770386 C7.68596992,26.0770386 8.05332697,25.9279446 8.12894957,26.0169708 C8.20424122,26.1063279 8.43160544,26.4637564 8.58318159,26.2549255 C8.73393037,26.0460946 8.75908274,25.956572 8.98661244,25.956572 C9.21314929,25.956572 9.31425522,26.1654029 9.44018256,26.3143314 C9.56627539,26.4637564 9.91923601,26.8516325 10.0956336,26.8215158 C10.2725276,26.7918956 10.4990644,27.0598015 10.6254882,26.9704444 C10.7517465,26.8810872 10.9532965,27.0296848 11.053906,27.0899181 C11.1551774,27.1491586 11.3668214,27.3700692 11.3418345,27.7271668 C11.3165166,28.0847607 11.6840391,28.1620381 11.8354498,28.2517262 C11.987026,28.3410833 12.1885759,28.5489213 12.3149997,28.6986772 C12.4410925,28.8474403 12.718596,28.877226 12.7943841,28.9669141 C12.8696757,29.0561057 12.920146,29.23482 13.1470138,29.0863879 C13.3737161,28.9364665 13.3239078,28.6685606 13.3239078,28.6685606 C13.3239078,28.6685606 13.5759279,28.6094856 13.7016898,28.7284629 C13.82861,28.8474403 13.9040671,29.23482 13.9793588,29.2940604 C14.0551468,29.3544592 14.2062266,29.8007484 14.1052861,30.1283912 C14.0045111,30.4561994 14.029498,30.7845041 13.9285576,30.7845041 C13.82861,30.7845041 13.5502791,31.0965921 13.3990339,31.1861147 C13.2474578,31.2754718 12.9956031,31.7674324 13.0212519,31.9165264 C13.0460733,32.0652895 13.1332792,32.5372274 13.0826435,32.7462238 C13.0325043,32.9545583 12.8446888,33.1673606 12.920146,33.4953343 C12.9956031,33.8233081 13.5252922,33.9126652 13.5506101,34.2105222 C13.5759279,34.5083793 13.9540409,35.1641613 14.0045111,35.4615219 C14.0551468,35.7595445 14.3258658,36.1039003 14.3258658,36.5209002 C14.3258658,36.9383965 15.0890418,37.1892584 15.2148037,37.2198715 C15.341062,37.2488298 15.5679298,37.5175631 15.7446583,37.6065892 C15.9215523,37.6961118 16.072632,37.8746606 16.1983939,38.1134427 C16.3246522,38.3522247 16.2996653,38.7094878 16.2996653,38.7990103 C16.2996653,38.8883675 16.2240427,39.8117244 16.1482546,40.3483635 C16.072632,40.8843408 16.3306094,41.3906978 16.1798606,41.5399573 C16.0279535,41.6890513 15.7446583,41.7481263 15.896069,41.9273369 C16.0469832,42.1060512 15.7193405,42.2256904 15.7193405,42.3145511 C15.7193405,42.4042392 15.9215523,42.8804795 15.8204464,43.0889795 C15.7193405,43.2979759 15.6433869,43.5953365 15.5679298,43.7743817 C15.4926381,43.9529304 15.3155787,44.1324721 15.3662144,44.4003779 C15.4168501,44.6681184 15.1643335,44.5792577 15.1643335,44.8471635 C15.1643335,45.1155659 15.3915322,44.9960921 15.341062,45.3237349 C15.2905918,45.6520395 15.1643335,45.7415621 15.1643335,45.9791859 C15.1643335,46.2174715 15.2905918,46.5454453 15.2905918,46.6346369 C15.2905918,46.7238285 15.1643335,47.0218511 14.9879359,47.2607986 C14.8117038,47.4987533 14.6854455,47.64702 14.7105979,47.7966104 C14.7354193,47.9453735 14.9123133,48.1242532 14.8873264,48.2139413 C14.8618431,48.3029674 14.6349753,48.6013209 14.6601276,48.8094899 C14.6854455,49.0181553 14.9123133,48.9289637 14.9631145,49.0772303 C15.0132537,49.2266553 14.6601276,49.3461291 14.8117038,49.4943957 C14.9631145,49.6438206 15.1643335,49.6138695 15.1145251,49.9712979 C15.0632275,50.3290574 15.3915322,50.4179181 15.4669893,50.5074407 C15.5424465,50.5971287 15.6938571,50.8054632 15.8204464,50.8054632 C15.9462083,50.8054632 16.0469832,50.7166025 16.0976189,50.3891252 C16.1482546,50.060986 16.5007188,50.3290574 16.2486987,50.567674 C15.9971749,50.8054632 15.8705857,50.924937 15.9462083,50.924937 C16.0216654,50.924937 16.4007712,51.1633881 16.6016593,51.1633881 C16.8037057,51.1633881 17.2076329,51.0440798 17.2830901,51.0142941 C17.3585472,50.9843429 17.9132232,50.8946548 17.9636935,50.8054632 C18.0138327,50.7166025 17.5351102,50.7465537 17.3075805,50.6568656 C17.0808782,50.567674 16.6772819,50.1208884 16.6273081,49.9420087 C16.5763414,49.7636254 16.5763414,49.4057005 16.7532354,49.2862267 C16.9297985,49.1667529 17.3585472,48.7504149 17.4593222,48.6610578 C17.5599317,48.5715352 17.7111769,48.1538734 17.6355543,48.094302 C17.5599317,48.0350615 17.1819841,48.094302 17.1316794,48.0049449 C17.0808782,47.9155878 17.0808782,47.7966104 17.3333948,47.5881105 C17.585415,47.3792796 17.7111769,47.0822499 17.8124483,46.9923963 C17.9132232,46.9032047 18.1146077,46.7238285 18.1905613,46.5156595 C18.2663493,46.3069941 18.1146077,46.4263024 17.9636935,46.4263024 C17.8124483,46.4263024 17.7366602,46.0984942 17.7366602,45.9490692 C17.7366602,45.8008026 18.1146077,46.0093025 18.3926076,46.068543 C18.6692838,46.1277835 18.5436874,45.9197799 18.5183695,45.7415621 C18.4935481,45.5623515 18.5693362,45.2646599 18.7202504,45.3538515 C18.8716611,45.4430432 19.6530395,45.3237349 19.7541454,45.2941146 C19.8552513,45.2646599 20.1320929,44.7275243 20.2330334,44.5792577 C20.3339738,44.4295018 20.3589607,44.2809042 20.2330334,44.1917125 C20.1072715,44.1025209 19.7561311,43.7538626 19.7061573,43.6651674 C19.6561835,43.5748174 19.8299335,43.0588628 19.8795763,42.9097688 C19.9307084,42.7615022 19.8795763,43.7743817 20.2330334,43.8935245 C20.585663,44.0129983 20.7878749,44.0719078 21.1158486,43.7151412 C21.4438223,43.3570508 21.6963389,43.1187652 21.7206639,42.8804795 C21.7459818,42.641532 21.8217698,42.4042392 21.9475317,42.3145511 C22.0736245,42.2256904 22.1775436,42.2890678 22.3282923,41.9016881 C22.4798685,41.5149704 22.6033137,41.8080286 22.7543934,41.4803858 C22.9054731,41.1524121 22.5032006,40.7349158 22.8055255,40.4974575 C23.1078505,40.2590064 23.6368777,39.9606529 23.6368777,39.9606529 C23.6368777,39.9606529 23.7894467,39.8709648 24.0914407,39.7816077 C24.3939311,39.6922506 24.7215739,39.751822 24.8226798,39.5726113 C24.9232893,39.3940626 25.0240643,39.0078412 25.1756404,38.7990103 C25.3267201,38.590014 25.5031177,38.2623712 25.4279915,38.1134427 C25.352038,37.9638522 25.6292105,37.3092286 25.6043891,37.1305143 C25.5790713,36.9516346 25.352038,36.5344693 25.7299855,36.1768753 C26.1092568,35.8191159 26.5126877,35.2826422 26.5370127,35.1343756 C26.562496,34.9851161 26.8649864,34.3591198 26.8396686,34.0614282 C26.8146817,33.7632402 26.5370127,33.4059772 26.3606151,33.3166201" id="Fill-4" fill="#91C350"></path>
                            <path d="M7.16900589,4.75232604 C7.10000233,4.7511677 7.02851664,4.74967842 6.95620356,4.74852008 C6.82514645,4.88470695 6.69590958,5.02254859 6.56750009,5.1612176 C6.6077108,5.16055569 6.70699648,5.14053308 6.81935479,5.12795689 C6.93485714,5.00169859 7.05135235,4.87643315 7.16900589,4.75232604" id="Fill-6" fill="#568029"></path>
                            <path d="M7.60233828,4.30550734 C7.59787042,4.25602997 7.58231566,4.1982788 7.55898353,4.1406931 C7.46714426,4.2308776 7.37513953,4.3210621 7.2844586,4.41240493 C7.35428953,4.42762874 7.41104785,4.43706088 7.46929545,4.44169421 C7.51364306,4.39635375 7.55765972,4.35068233 7.60233828,4.30550734" id="Fill-8" fill="#568029"></path>
                            <path d="M6.26292469,5.57791963 C6.35062705,5.55227083 6.40970204,5.38282325 6.46811512,5.26798281 C6.37412466,5.37041254 6.28145802,5.47400061 6.18895686,5.57775416 C6.21046875,5.58486963 6.23529018,5.58602796 6.26292469,5.57791963" id="Fill-10" fill="#568029"></path>
                        </g>
                    </g>
                </g>
            </g>
        </g>
    </g>
</svg>